<?xml version="1.0" encoding="UTF-8" standalone="no"?>
<svg
   viewBox="0 0 512 512"
   version="1.1"
   id="svg1"
   sodipodi:docname="comment-wgbast-solid.svg"
   inkscape:version="1.4 (86a8ad7, 2024-10-11)"
   xmlns:inkscape="http://www.inkscape.org/namespaces/inkscape"
   xmlns:sodipodi="http://sodipodi.sourceforge.net/DTD/sodipodi-0.dtd"
   xmlns="http://www.w3.org/2000/svg"
   xmlns:svg="http://www.w3.org/2000/svg">
  <defs
     id="defs1">
    <rect
       x="84.078431"
       y="168.78431"
       width="360.15686"
       height="151.21569"
       id="rect1" />
  </defs>
  <sodipodi:namedview
     id="namedview1"
     pagecolor="#ffffff"
     bordercolor="#666666"
     borderopacity="1.0"
     inkscape:showpageshadow="2"
     inkscape:pageopacity="0.0"
     inkscape:pagecheckerboard="0"
     inkscape:deskcolor="#d1d1d1"
     inkscape:zoom="1.59375"
     inkscape:cx="295.84314"
     inkscape:cy="256"
     inkscape:window-width="1920"
     inkscape:window-height="1018"
     inkscape:window-x="1529"
     inkscape:window-y="-6"
     inkscape:window-maximized="1"
     inkscape:current-layer="svg1" />
  <!--!Font Awesome Free 6.7.1 by @fontawesome - https://fontawesome.com License - https://fontawesome.com/license/free Copyright 2024 Fonticons, Inc.-->
  <path
     d="M512 240c0 114.9-114.6 208-256 208c-37.1 0-72.3-6.4-104.1-17.9c-11.9 8.7-31.3 20.6-54.3 30.6C73.6 471.1 44.7 480 16 480c-6.5 0-12.3-3.9-14.8-9.9c-2.5-6-1.1-12.8 3.4-17.4c0 0 0 0 0 0s0 0 0 0s0 0 0 0c0 0 0 0 0 0l.3-.3c.3-.3 .7-.7 1.3-1.4c1.1-1.2 2.8-3.1 4.9-5.7c4.1-5 9.6-12.4 15.2-21.6c10-16.6 19.5-38.4 21.4-62.9C17.7 326.8 0 285.1 0 240C0 125.1 114.6 32 256 32s256 93.1 256 208z"
     id="path1" />
  <text
     xml:space="preserve"
     id="text1"
     style="line-height:1.25;font-family:Sans;font-size:133.333px;text-orientation:auto;white-space:pre;shape-inside:url(#rect1);-inkscape-font-specification:'Sans, Normal';font-weight:normal;font-style:normal;font-stretch:normal;font-variant:normal;font-variant-ligatures:normal;font-variant-caps:normal;font-variant-numeric:normal;font-variant-east-asian:normal;fill:#ffffff" />
  <text
     xml:space="preserve"
     style="font-style:normal;font-variant:normal;font-weight:normal;font-stretch:normal;font-size:335.791px;line-height:1.25;font-family:Elephant;-inkscape-font-specification:'Elephant, Normal';font-variant-ligatures:normal;font-variant-caps:normal;font-variant-numeric:normal;font-variant-east-asian:normal;fill:#ffffff;stroke-width:1.74891"
     x="117.64705"
     y="356.57516"
     id="text2"><tspan
       sodipodi:role="line"
       id="tspan2"
       x="117.64705"
       y="356.57516"
       style="stroke-width:1.74891">B</tspan></text>
</svg>
