<?xml version="1.0" encoding="UTF-8" standalone="no"?>
<!DOCTYPE svg PUBLIC "-//W3C//DTD SVG 1.1//EN"
 "http://www.w3.org/Graphics/SVG/1.1/DTD/svg11.dtd">
<!-- Generated by graphviz version 14.0.5 (20251129.0259)
 -->
<!-- Title: schema Pages: 1 -->
<svg width="524pt" height="360pt"
 viewBox="0.00 0.00 524.00 360.00" xmlns="http://www.w3.org/2000/svg" xmlns:xlink="http://www.w3.org/1999/xlink">
<g id="graph0" class="graph" transform="scale(0.518265 0.518265) rotate(0) translate(4 690.62)">
<title>schema</title>
<polygon fill="white" stroke="none" points="-4,4 -4,-690.62 1006.12,-690.62 1006.12,4 -4,4"/>
<!-- ref -->
<g id="node1" class="node">
<title>ref</title>
<path fill="gray" stroke="black" d="M561.25,-96.88C561.25,-102.22 549.15,-106.56 534.25,-106.56 519.35,-106.56 507.25,-102.22 507.25,-96.88 507.25,-96.88 507.25,-9.69 507.25,-9.69 507.25,-4.34 519.35,0 534.25,0 549.15,0 561.25,-4.34 561.25,-9.69 561.25,-9.69 561.25,-96.88 561.25,-96.88"/>
<path fill="none" stroke="black" d="M561.25,-96.88C561.25,-91.53 549.15,-87.19 534.25,-87.19 519.35,-87.19 507.25,-91.53 507.25,-96.88"/>
<polygon fill="none" stroke="black" points="517.25,-61.53 517.25,-88.03 551.25,-88.03 551.25,-61.53 517.25,-61.53"/>
<text xml:space="preserve" text-anchor="start" x="522.25" y="-70.73" font-family="Times New Roman,serif" font-size="14.00"> </text>
<text xml:space="preserve" text-anchor="start" x="526" y="-70.73" font-family="Times New Roman,serif" font-weight="bold" font-size="14.00">ref</text>
<text xml:space="preserve" text-anchor="start" x="542.5" y="-70.73" font-family="Times New Roman,serif" font-size="14.00"> </text>
<polygon fill="none" stroke="black" points="517.25,-18.53 517.25,-61.53 551.25,-61.53 551.25,-18.53 517.25,-18.53"/>
<text xml:space="preserve" text-anchor="start" x="524.88" y="-43.23" font-family="Times New Roman,serif" font-size="14.00"> ... </text>
<text xml:space="preserve" text-anchor="start" x="532.38" y="-26.73" font-family="Times New Roman,serif" font-size="14.00"> </text>
</g>
<!-- dat -->
<g id="node2" class="node">
<title>dat</title>
<path fill="gray" stroke="black" d="M641.75,-383.81C641.75,-397.12 611.05,-407.94 573.25,-407.94 535.45,-407.94 504.75,-397.12 504.75,-383.81 504.75,-383.81 504.75,-166.69 504.75,-166.69 504.75,-153.38 535.45,-142.56 573.25,-142.56 611.05,-142.56 641.75,-153.38 641.75,-166.69 641.75,-166.69 641.75,-383.81 641.75,-383.81"/>
<path fill="none" stroke="black" d="M641.75,-383.81C641.75,-370.5 611.05,-359.69 573.25,-359.69 535.45,-359.69 504.75,-370.5 504.75,-383.81"/>
<polygon fill="none" stroke="black" points="512.75,-341.25 512.75,-367.75 633.75,-367.75 633.75,-341.25 512.75,-341.25"/>
<text xml:space="preserve" text-anchor="start" x="560.12" y="-350.45" font-family="Times New Roman,serif" font-size="14.00"> </text>
<text xml:space="preserve" text-anchor="start" x="563.88" y="-350.45" font-family="Times New Roman,serif" font-weight="bold" font-size="14.00">dat</text>
<text xml:space="preserve" text-anchor="start" x="582.62" y="-350.45" font-family="Times New Roman,serif" font-size="14.00"> </text>
<polygon fill="none" stroke="black" points="512.75,-182.75 512.75,-341.25 633.75,-341.25 633.75,-182.75 512.75,-182.75"/>
<text xml:space="preserve" text-anchor="start" x="517.75" y="-322.95" font-family="Times New Roman,serif" font-size="14.00" fill="lightblue">dat.t_stock_sto</text>
<text xml:space="preserve" text-anchor="start" x="517.75" y="-306.45" font-family="Times New Roman,serif" font-size="14.00" fill="lightblue">dat.t_metadata_met</text>
<text xml:space="preserve" text-anchor="start" x="517.75" y="-289.95" font-family="Times New Roman,serif" font-size="14.00">dat.t_series_ser </text>
<text xml:space="preserve" text-anchor="start" x="517.75" y="-273.45" font-family="Times New Roman,serif" font-size="14.00">dat.t_serannual_san </text>
<text xml:space="preserve" text-anchor="start" x="517.75" y="-256.95" font-family="Times New Roman,serif" font-size="14.00">dat.t_group_gr </text>
<text xml:space="preserve" text-anchor="start" x="517.75" y="-240.45" font-family="Times New Roman,serif" font-size="14.00">dat.t_grouptrait_grt </text>
<text xml:space="preserve" text-anchor="start" x="517.75" y="-223.95" font-family="Times New Roman,serif" font-size="14.00">dat.t_fish_fi </text>
<text xml:space="preserve" text-anchor="start" x="517.75" y="-207.45" font-family="Times New Roman,serif" font-size="14.00">... </text>
<text xml:space="preserve" text-anchor="start" x="571.38" y="-190.95" font-family="Times New Roman,serif" font-size="14.00"> </text>
</g>
<!-- refeel -->
<g id="node3" class="node">
<title>refeel</title>
<path fill="pink" stroke="black" d="M486.25,-365.25C486.25,-376.29 446.81,-385.25 398.25,-385.25 349.69,-385.25 310.25,-376.29 310.25,-365.25 310.25,-365.25 310.25,-185.25 310.25,-185.25 310.25,-174.21 349.69,-165.25 398.25,-165.25 446.81,-165.25 486.25,-174.21 486.25,-185.25 486.25,-185.25 486.25,-365.25 486.25,-365.25"/>
<path fill="none" stroke="black" d="M486.25,-365.25C486.25,-354.21 446.81,-345.25 398.25,-345.25 349.69,-345.25 310.25,-354.21 310.25,-365.25"/>
<polygon fill="none" stroke="black" points="318.25,-324.75 318.25,-351.25 478.25,-351.25 478.25,-324.75 318.25,-324.75"/>
<text xml:space="preserve" text-anchor="start" x="378.38" y="-333.95" font-family="Times New Roman,serif" font-size="14.00"> </text>
<text xml:space="preserve" text-anchor="start" x="382.12" y="-333.95" font-family="Times New Roman,serif" font-weight="bold" font-size="14.00">refeel</text>
<text xml:space="preserve" text-anchor="start" x="414.38" y="-333.95" font-family="Times New Roman,serif" font-size="14.00"> </text>
<polygon fill="none" stroke="black" points="318.25,-199.25 318.25,-324.75 478.25,-324.75 478.25,-199.25 318.25,-199.25"/>
<text xml:space="preserve" text-anchor="start" x="323.25" y="-306.45" font-family="Times New Roman,serif" font-size="14.00">refeel.tg_trait_tra</text>
<text xml:space="preserve" text-anchor="start" x="323.25" y="-289.95" font-family="Times New Roman,serif" font-size="14.00">refeel.tr_area_are</text>
<text xml:space="preserve" text-anchor="start" x="323.25" y="-273.45" font-family="Times New Roman,serif" font-size="14.00">refeel.tr_traitmethod_trm</text>
<text xml:space="preserve" text-anchor="start" x="323.25" y="-256.95" font-family="Times New Roman,serif" font-size="14.00">refeel.tr_traitnumeric_trn</text>
<text xml:space="preserve" text-anchor="start" x="323.25" y="-240.45" font-family="Times New Roman,serif" font-size="14.00">refeel.tr_traitqualitative_trq</text>
<text xml:space="preserve" text-anchor="start" x="323.25" y="-223.95" font-family="Times New Roman,serif" font-size="14.00">refeel.tr_traitvaluequal_trv</text>
<text xml:space="preserve" text-anchor="start" x="323.25" y="-207.45" font-family="Times New Roman,serif" font-size="14.00">refeel.tr_version_ver</text>
</g>
<!-- refeel&#45;&gt;ref -->
<g id="edge1" class="edge">
<title>refeel&#45;&gt;ref</title>
<path fill="none" stroke="black" stroke-dasharray="5,2" d="M463.46,-168.78C476.46,-147.75 489.6,-126.5 500.97,-108.11"/>
<polygon fill="black" stroke="black" points="503.84,-110.12 506.12,-99.78 497.89,-106.44 503.84,-110.12"/>
</g>
<!-- dateel -->
<g id="node4" class="node">
<title>dateel</title>
<path fill="pink" stroke="black" d="M501.25,-661.19C501.25,-672.95 463.15,-682.5 416.25,-682.5 369.35,-682.5 331.25,-672.95 331.25,-661.19 331.25,-661.19 331.25,-469.38 331.25,-469.38 331.25,-457.62 369.35,-448.06 416.25,-448.06 463.15,-448.06 501.25,-457.62 501.25,-469.38 501.25,-469.38 501.25,-661.19 501.25,-661.19"/>
<path fill="none" stroke="black" d="M501.25,-661.19C501.25,-649.43 463.15,-639.88 416.25,-639.88 369.35,-639.88 331.25,-649.43 331.25,-661.19"/>
<polygon fill="none" stroke="black" points="339.25,-620.03 339.25,-646.53 493.25,-646.53 493.25,-620.03 339.25,-620.03"/>
<text xml:space="preserve" text-anchor="start" x="395.25" y="-629.23" font-family="Times New Roman,serif" font-size="14.00"> </text>
<text xml:space="preserve" text-anchor="start" x="399" y="-629.23" font-family="Times New Roman,serif" font-weight="bold" font-size="14.00">dateel</text>
<text xml:space="preserve" text-anchor="start" x="433.5" y="-629.23" font-family="Times New Roman,serif" font-size="14.00"> </text>
<polygon fill="none" stroke="black" points="339.25,-484.03 339.25,-620.03 493.25,-620.03 493.25,-484.03 339.25,-484.03"/>
<text xml:space="preserve" text-anchor="start" x="344.25" y="-602.73" font-family="Times New Roman,serif" font-size="14.00" fill="blue">dateel.t_metadata_met</text>
<text xml:space="preserve" text-anchor="start" x="468" y="-602.73" font-family="Times New Roman,serif" font-size="14.00"> </text>
<text xml:space="preserve" text-anchor="start" x="344.25" y="-588.73" font-family="Times New Roman,serif" font-size="14.00" fill="blue">dateel.t_stock_sto</text>
<text xml:space="preserve" text-anchor="start" x="441.75" y="-588.73" font-family="Times New Roman,serif" font-size="14.00"> </text>
<text xml:space="preserve" text-anchor="start" x="344.25" y="-574.73" font-family="Times New Roman,serif" font-size="14.00">dateel.t_series_ser </text>
<text xml:space="preserve" text-anchor="start" x="344.25" y="-560.73" font-family="Times New Roman,serif" font-size="14.00">dateel.t_serannual_san </text>
<text xml:space="preserve" text-anchor="start" x="344.25" y="-546.73" font-family="Times New Roman,serif" font-size="14.00">dateel.t_group_gr </text>
<text xml:space="preserve" text-anchor="start" x="344.25" y="-532.73" font-family="Times New Roman,serif" font-size="14.00">dateel.t_grouptrait_grt </text>
<text xml:space="preserve" text-anchor="start" x="344.25" y="-518.73" font-family="Times New Roman,serif" font-size="14.00">dateel.t_fish_fi </text>
<text xml:space="preserve" text-anchor="start" x="344.25" y="-504.73" font-family="Times New Roman,serif" font-size="14.00">dateel.tj_seriesstation_ses </text>
<text xml:space="preserve" text-anchor="start" x="414.38" y="-490.73" font-family="Times New Roman,serif" font-size="14.00"> </text>
</g>
<!-- dateel&#45;&gt;ref -->
<g id="edge13" class="edge">
<title>dateel&#45;&gt;ref</title>
<path fill="none" stroke="black" d="M333.56,-456.9C316.75,-434.03 303.47,-414.7 301.25,-407.94 264.47,-295.87 234.23,-239.62 301.25,-142.56 345.33,-78.72 442,-61 495.94,-56.12"/>
<polygon fill="black" stroke="black" points="495.89,-59.63 505.58,-55.35 495.33,-52.65 495.89,-59.63"/>
</g>
<!-- dateel&#45;&gt;dat -->
<g id="edge5" class="edge">
<title>dateel&#45;&gt;dat</title>
<path fill="none" stroke="black" stroke-dasharray="5,2" d="M477.85,-451.27C485.6,-437.06 493.58,-422.42 501.46,-407.95"/>
<polygon fill="black" stroke="black" points="504.47,-409.75 506.18,-399.29 498.32,-406.4 504.47,-409.75"/>
</g>
<!-- dateel&#45;&gt;refeel -->
<g id="edge9" class="edge">
<title>dateel&#45;&gt;refeel</title>
<path fill="none" stroke="black" d="M408.98,-447.96C407.92,-431.05 406.83,-413.62 405.77,-396.63"/>
<polygon fill="black" stroke="black" points="409.29,-396.82 405.17,-387.06 402.31,-397.26 409.29,-396.82"/>
</g>
<!-- refbast -->
<g id="node5" class="node">
<title>refbast</title>
<path fill="purple" stroke="black" d="M216.5,-363.28C216.5,-374.08 167.98,-382.84 108.25,-382.84 48.52,-382.84 0,-374.08 0,-363.28 0,-363.28 0,-187.22 0,-187.22 0,-176.42 48.52,-167.66 108.25,-167.66 167.98,-167.66 216.5,-176.42 216.5,-187.22 216.5,-187.22 216.5,-363.28 216.5,-363.28"/>
<path fill="none" stroke="black" d="M216.5,-363.28C216.5,-352.49 167.98,-343.72 108.25,-343.72 48.52,-343.72 0,-352.49 0,-363.28"/>
<polygon fill="none" stroke="black" points="8,-323 8,-349.5 208.5,-349.5 208.5,-323 8,-323"/>
<text xml:space="preserve" text-anchor="start" x="84.25" y="-332.2" font-family="Times New Roman,serif" font-size="14.00"> </text>
<text xml:space="preserve" text-anchor="start" x="88" y="-332.2" font-family="Times New Roman,serif" font-weight="bold" font-size="14.00" fill="white">refbast</text>
<text xml:space="preserve" text-anchor="start" x="128.5" y="-332.2" font-family="Times New Roman,serif" font-size="14.00"> </text>
<polygon fill="none" stroke="black" points="8,-201 8,-323 208.5,-323 208.5,-201 8,-201"/>
<text xml:space="preserve" text-anchor="start" x="13" y="-305.7" font-family="Times New Roman,serif" font-size="14.00" fill="white">refbast.tr_area_are </text>
<text xml:space="preserve" text-anchor="start" x="13" y="-291.7" font-family="Times New Roman,serif" font-size="14.00" fill="white"> refbast.tr_estimationmethod_esm </text>
<text xml:space="preserve" text-anchor="start" x="13" y="-277.7" font-family="Times New Roman,serif" font-size="14.00" fill="white"> refbast.tr_rivernames_riv </text>
<text xml:space="preserve" text-anchor="start" x="13" y="-263.7" font-family="Times New Roman,serif" font-size="14.00" fill="white"> refbast.tr_version_ver </text>
<text xml:space="preserve" text-anchor="start" x="13" y="-249.7" font-family="Times New Roman,serif" font-size="14.00" fill="white"> </text>
<text xml:space="preserve" text-anchor="start" x="16.75" y="-249.7" font-family="Times New Roman,serif" font-size="14.00" fill="pink">refbast.tr_traitmethod_trm</text>
<text xml:space="preserve" text-anchor="start" x="13" y="-235.7" font-family="Times New Roman,serif" font-size="14.00" fill="pink">refbast.tr_traitnumeric_trn</text>
<text xml:space="preserve" text-anchor="start" x="13" y="-221.7" font-family="Times New Roman,serif" font-size="14.00" fill="pink">refbast.tr_traitqualitative_trq</text>
<text xml:space="preserve" text-anchor="start" x="13" y="-207.7" font-family="Times New Roman,serif" font-size="14.00" fill="pink">refbast.tr_traitvaluequal_trv</text>
</g>
<!-- refbast&#45;&gt;ref -->
<g id="edge2" class="edge">
<title>refbast&#45;&gt;ref</title>
<path fill="none" stroke="black" stroke-dasharray="5,2" d="M192.35,-171.57C204.26,-160.76 216.99,-150.75 230.25,-142.56 316.18,-89.51 435.37,-67.14 495.81,-58.73"/>
<polygon fill="black" stroke="black" points="496.13,-62.22 505.58,-57.43 495.21,-55.28 496.13,-62.22"/>
</g>
<!-- datbast -->
<g id="node6" class="node">
<title>datbast</title>
<path fill="purple" stroke="black" d="M313.5,-664.56C313.5,-676.74 274.39,-686.62 226.25,-686.62 178.11,-686.62 139,-676.74 139,-664.56 139,-664.56 139,-466 139,-466 139,-453.83 178.11,-443.94 226.25,-443.94 274.39,-443.94 313.5,-453.83 313.5,-466 313.5,-466 313.5,-664.56 313.5,-664.56"/>
<path fill="none" stroke="black" d="M313.5,-664.56C313.5,-652.39 274.39,-642.5 226.25,-642.5 178.11,-642.5 139,-652.39 139,-664.56"/>
<polygon fill="none" stroke="black" points="147,-623.03 147,-649.53 305.5,-649.53 305.5,-623.03 147,-623.03"/>
<text xml:space="preserve" text-anchor="start" x="201.12" y="-632.23" font-family="Times New Roman,serif" font-size="14.00"> </text>
<text xml:space="preserve" text-anchor="start" x="204.88" y="-632.23" font-family="Times New Roman,serif" font-weight="bold" font-size="14.00" fill="white">datbast</text>
<text xml:space="preserve" text-anchor="start" x="247.62" y="-632.23" font-family="Times New Roman,serif" font-size="14.00"> </text>
<polygon fill="none" stroke="black" points="147,-481.03 147,-623.03 305.5,-623.03 305.5,-481.03 147,-481.03"/>
<text xml:space="preserve" text-anchor="start" x="152" y="-604.73" font-family="Times New Roman,serif" font-size="14.00" fill="lightblue"> &#160;&#160;&#160;datbast.t_stock_sto </text>
<text xml:space="preserve" text-anchor="start" x="152" y="-588.23" font-family="Times New Roman,serif" font-size="14.00" fill="lightblue"> &#160;&#160;&#160;datbast.t_metadata_met </text>
<text xml:space="preserve" text-anchor="start" x="152" y="-571.73" font-family="Times New Roman,serif" font-size="14.00" fill="white"> &#160;&#160;&#160;datbast.t_series_ser </text>
<text xml:space="preserve" text-anchor="start" x="152" y="-555.23" font-family="Times New Roman,serif" font-size="14.00" fill="white"> &#160;&#160;&#160;datbast.t_serannual_san </text>
<text xml:space="preserve" text-anchor="start" x="152" y="-538.73" font-family="Times New Roman,serif" font-size="14.00" fill="white"> &#160;&#160;&#160;datbast.t_group_gr </text>
<text xml:space="preserve" text-anchor="start" x="152" y="-522.23" font-family="Times New Roman,serif" font-size="14.00" fill="white"> &#160;&#160;&#160;datbast.t_grouptrait_grt </text>
<text xml:space="preserve" text-anchor="start" x="152" y="-505.73" font-family="Times New Roman,serif" font-size="14.00" fill="white"> &#160;&#160;&#160;datbast.t_fish_fi </text>
<text xml:space="preserve" text-anchor="start" x="222.5" y="-489.23" font-family="Times New Roman,serif" font-size="14.00"> &#160;</text>
</g>
<!-- datbast&#45;&gt;ref -->
<g id="edge16" class="edge">
<title>datbast&#45;&gt;ref</title>
<path fill="none" stroke="black" d="M228.61,-443.55C231.96,-327.33 239.89,-165.81 258.25,-142.56 315.84,-69.65 433.98,-55.99 495.34,-54.04"/>
<polygon fill="black" stroke="black" points="495.38,-57.54 505.3,-53.83 495.23,-50.54 495.38,-57.54"/>
</g>
<!-- datbast&#45;&gt;dat -->
<g id="edge7" class="edge">
<title>datbast&#45;&gt;dat</title>
<path fill="none" stroke="black" stroke-dasharray="5,2" d="M309.94,-452.42C313.93,-449.37 318.04,-446.53 322.25,-443.94 389.15,-402.8 431.36,-453.61 495.25,-407.94 496.28,-407.2 497.29,-406.45 498.3,-405.68"/>
<polygon fill="black" stroke="black" points="500.49,-408.41 505.88,-399.3 495.98,-403.06 500.49,-408.41"/>
</g>
<!-- datbast&#45;&gt;refbast -->
<g id="edge12" class="edge">
<title>datbast&#45;&gt;refbast</title>
<path fill="none" stroke="black" d="M176.89,-443.8C170.04,-427.08 163.01,-409.92 156.19,-393.26"/>
<polygon fill="black" stroke="black" points="159.57,-392.29 152.54,-384.36 153.09,-394.94 159.57,-392.29"/>
</g>
<!-- refnas -->
<g id="node7" class="node">
<title>refnas</title>
<path fill="limegreen" stroke="black" d="M862.25,-337.41C862.25,-345.03 825.5,-351.22 780.25,-351.22 735,-351.22 698.25,-345.03 698.25,-337.41 698.25,-337.41 698.25,-213.09 698.25,-213.09 698.25,-205.47 735,-199.28 780.25,-199.28 825.5,-199.28 862.25,-205.47 862.25,-213.09 862.25,-213.09 862.25,-337.41 862.25,-337.41"/>
<path fill="none" stroke="black" d="M862.25,-337.41C862.25,-329.78 825.5,-323.59 780.25,-323.59 735,-323.59 698.25,-329.78 698.25,-337.41"/>
<polygon fill="none" stroke="black" points="706.25,-300 706.25,-326.5 854.25,-326.5 854.25,-300 706.25,-300"/>
<text xml:space="preserve" text-anchor="start" x="758.5" y="-309.2" font-family="Times New Roman,serif" font-size="14.00"> </text>
<text xml:space="preserve" text-anchor="start" x="762.25" y="-309.2" font-family="Times New Roman,serif" font-weight="bold" font-size="14.00">refnas</text>
<text xml:space="preserve" text-anchor="start" x="798.25" y="-309.2" font-family="Times New Roman,serif" font-size="14.00"> </text>
<polygon fill="none" stroke="black" points="706.25,-224 706.25,-300 854.25,-300 854.25,-224 706.25,-224"/>
<text xml:space="preserve" text-anchor="start" x="711.25" y="-281.7" font-family="Times New Roman,serif" font-size="14.00" fill="blue">refnas.tg_additional_add </text>
<text xml:space="preserve" text-anchor="start" x="711.25" y="-265.2" font-family="Times New Roman,serif" font-size="14.00">refnas.tr_area_are </text>
<text xml:space="preserve" text-anchor="start" x="711.25" y="-248.7" font-family="Times New Roman,serif" font-size="14.00">refnas.tr_rivernames_riv </text>
<text xml:space="preserve" text-anchor="start" x="711.25" y="-232.2" font-family="Times New Roman,serif" font-size="14.00">refnas.tr_version_ver </text>
</g>
<!-- refnas&#45;&gt;ref -->
<g id="edge3" class="edge">
<title>refnas&#45;&gt;ref</title>
<path fill="none" stroke="black" stroke-dasharray="5,2" d="M733.57,-199.12C719.22,-179.36 702.38,-159 684.25,-142.56 650.36,-111.84 604.1,-86.58 571.95,-71.07"/>
<polygon fill="black" stroke="black" points="573.53,-67.94 562.99,-66.83 570.53,-74.27 573.53,-67.94"/>
</g>
<!-- datnas -->
<g id="node8" class="node">
<title>datnas</title>
<path fill="limegreen" stroke="black" d="M748.12,-618.16C748.12,-624.64 713.22,-629.91 670.25,-629.91 627.28,-629.91 592.38,-624.64 592.38,-618.16 592.38,-618.16 592.38,-512.41 592.38,-512.41 592.38,-505.92 627.28,-500.66 670.25,-500.66 713.22,-500.66 748.12,-505.92 748.12,-512.41 748.12,-512.41 748.12,-618.16 748.12,-618.16"/>
<path fill="none" stroke="black" d="M748.12,-618.16C748.12,-611.67 713.22,-606.41 670.25,-606.41 627.28,-606.41 592.38,-611.67 592.38,-618.16"/>
<polygon fill="none" stroke="black" points="600.38,-581.78 600.38,-608.28 740.12,-608.28 740.12,-581.78 600.38,-581.78"/>
<text xml:space="preserve" text-anchor="start" x="647.38" y="-590.98" font-family="Times New Roman,serif" font-size="14.00"> </text>
<text xml:space="preserve" text-anchor="start" x="651.12" y="-590.98" font-family="Times New Roman,serif" font-weight="bold" font-size="14.00">datnas</text>
<text xml:space="preserve" text-anchor="start" x="689.38" y="-590.98" font-family="Times New Roman,serif" font-size="14.00"> </text>
<polygon fill="none" stroke="black" points="600.38,-522.28 600.38,-581.78 740.12,-581.78 740.12,-522.28 600.38,-522.28"/>
<text xml:space="preserve" text-anchor="start" x="605.38" y="-563.48" font-family="Times New Roman,serif" font-size="14.00" fill="blue">datnas.t_stock_sto </text>
<text xml:space="preserve" text-anchor="start" x="605.38" y="-546.98" font-family="Times New Roman,serif" font-size="14.00" fill="blue">datnas.t_metadata_met </text>
<text xml:space="preserve" text-anchor="start" x="605.38" y="-530.48" font-family="Times New Roman,serif" font-size="14.00" fill="red">datnas.t_archive_ar </text>
</g>
<!-- datnas&#45;&gt;ref -->
<g id="edge14" class="edge">
<title>datnas&#45;&gt;ref</title>
<path fill="none" stroke="black" d="M673.89,-500.46C678.65,-398.17 683.01,-202.87 651.25,-142.56 634.11,-110.02 599.03,-86.08 571.73,-71.41"/>
<polygon fill="black" stroke="black" points="573.54,-68.4 563.05,-66.93 570.33,-74.62 573.54,-68.4"/>
</g>
<!-- datnas&#45;&gt;dat -->
<g id="edge6" class="edge">
<title>datnas&#45;&gt;dat</title>
<path fill="none" stroke="black" stroke-dasharray="5,2" d="M648.72,-500.36C640.37,-475.56 630.46,-446.12 620.6,-416.86"/>
<polygon fill="black" stroke="black" points="623.97,-415.89 617.46,-407.53 617.34,-418.13 623.97,-415.89"/>
</g>
<!-- datnas&#45;&gt;refnas -->
<g id="edge10" class="edge">
<title>datnas&#45;&gt;refnas</title>
<path fill="none" stroke="black" d="M694.66,-500.36C710.22,-459.62 730.57,-406.35 747.52,-361.96"/>
<polygon fill="black" stroke="black" points="750.68,-363.48 750.98,-352.89 744.15,-360.98 750.68,-363.48"/>
</g>
<!-- reftrutta -->
<g id="node9" class="node">
<title>reftrutta</title>
<path fill="#ffa54f" stroke="black" d="M1002.12,-300.28C1002.12,-303.35 983.36,-305.84 960.25,-305.84 937.14,-305.84 918.38,-303.35 918.38,-300.28 918.38,-300.28 918.38,-250.22 918.38,-250.22 918.38,-247.15 937.14,-244.66 960.25,-244.66 983.36,-244.66 1002.12,-247.15 1002.12,-250.22 1002.12,-250.22 1002.12,-300.28 1002.12,-300.28"/>
<path fill="none" stroke="black" d="M1002.12,-300.28C1002.12,-297.21 983.36,-294.72 960.25,-294.72 937.14,-294.72 918.38,-297.21 918.38,-300.28"/>
<polygon fill="none" stroke="black" points="926.38,-267 926.38,-293.5 994.12,-293.5 994.12,-267 926.38,-267"/>
<text xml:space="preserve" text-anchor="start" x="931.38" y="-276.2" font-family="Times New Roman,serif" font-size="14.00"> </text>
<text xml:space="preserve" text-anchor="start" x="935.12" y="-276.2" font-family="Times New Roman,serif" font-weight="bold" font-size="14.00">reftrutta</text>
<text xml:space="preserve" text-anchor="start" x="985.38" y="-276.2" font-family="Times New Roman,serif" font-size="14.00"> </text>
<polygon fill="none" stroke="black" points="926.38,-257 926.38,-267 994.12,-267 994.12,-257 926.38,-257"/>
</g>
<!-- reftrutta&#45;&gt;ref -->
<g id="edge4" class="edge">
<title>reftrutta&#45;&gt;ref</title>
<path fill="none" stroke="black" stroke-dasharray="5,2" d="M955.52,-244.25C949.17,-214.09 934.9,-168.46 904.25,-142.56 853.89,-100.02 657.05,-70.14 572.82,-59.05"/>
<polygon fill="black" stroke="black" points="573.35,-55.59 562.98,-57.77 572.45,-62.53 573.35,-55.59"/>
</g>
<!-- dattrutta -->
<g id="node10" class="node">
<title>dattrutta</title>
<path fill="#ffa54f" stroke="black" d="M933.25,-590.31C933.25,-593.38 913.98,-595.88 890.25,-595.88 866.52,-595.88 847.25,-593.38 847.25,-590.31 847.25,-590.31 847.25,-540.25 847.25,-540.25 847.25,-537.18 866.52,-534.69 890.25,-534.69 913.98,-534.69 933.25,-537.18 933.25,-540.25 933.25,-540.25 933.25,-590.31 933.25,-590.31"/>
<path fill="none" stroke="black" d="M933.25,-590.31C933.25,-587.24 913.98,-584.75 890.25,-584.75 866.52,-584.75 847.25,-587.24 847.25,-590.31"/>
<polygon fill="none" stroke="black" points="855.25,-557.03 855.25,-583.53 925.25,-583.53 925.25,-557.03 855.25,-557.03"/>
<text xml:space="preserve" text-anchor="start" x="860.25" y="-566.23" font-family="Times New Roman,serif" font-size="14.00"> </text>
<text xml:space="preserve" text-anchor="start" x="864" y="-566.23" font-family="Times New Roman,serif" font-weight="bold" font-size="14.00">dattrutta</text>
<text xml:space="preserve" text-anchor="start" x="916.5" y="-566.23" font-family="Times New Roman,serif" font-size="14.00"> </text>
<polygon fill="none" stroke="black" points="855.25,-547.03 855.25,-557.03 925.25,-557.03 925.25,-547.03 855.25,-547.03"/>
</g>
<!-- dattrutta&#45;&gt;ref -->
<g id="edge15" class="edge">
<title>dattrutta&#45;&gt;ref</title>
<path fill="none" stroke="black" d="M893.29,-534.43C901.38,-448.43 919.68,-202.48 871.25,-142.56 833.65,-96.05 653.01,-68.71 572.79,-58.69"/>
<polygon fill="black" stroke="black" points="573.56,-55.25 563.21,-57.52 572.71,-62.2 573.56,-55.25"/>
</g>
<!-- dattrutta&#45;&gt;dat -->
<g id="edge8" class="edge">
<title>dattrutta&#45;&gt;dat</title>
<path fill="none" stroke="black" stroke-dasharray="5,2" d="M861.93,-534.79C836.15,-508.92 796.27,-471.28 757.25,-443.94 729.24,-424.31 716.1,-429.11 689.25,-407.94 675.58,-397.16 662.23,-384.63 649.75,-371.67"/>
<polygon fill="black" stroke="black" points="652.54,-369.53 643.13,-364.66 647.45,-374.33 652.54,-369.53"/>
</g>
<!-- dattrutta&#45;&gt;reftrutta -->
<g id="edge11" class="edge">
<title>dattrutta&#45;&gt;reftrutta</title>
<path fill="none" stroke="black" d="M897.54,-534.27C910.15,-482.4 936.03,-375.91 950.28,-317.25"/>
<polygon fill="black" stroke="black" points="953.66,-318.21 952.62,-307.66 946.85,-316.55 953.66,-318.21"/>
</g>
</g>
</svg>
