<?xml version="1.0" encoding="UTF-8" standalone="no"?>
<!DOCTYPE svg PUBLIC "-//W3C//DTD SVG 1.1//EN"
 "http://www.w3.org/Graphics/SVG/1.1/DTD/svg11.dtd">
<!-- Generated by graphviz version 14.0.5 (20251129.0259)
 -->
<!-- Title: schema Pages: 1 -->
<svg width="576pt" height="329pt"
 viewBox="0.00 0.00 576.00 329.00" xmlns="http://www.w3.org/2000/svg" xmlns:xlink="http://www.w3.org/1999/xlink">
<g id="graph0" class="graph" transform="scale(0.993318 0.993318) rotate(0) translate(4 327.62)">
<title>schema</title>
<polygon fill="white" stroke="none" points="-4,4 -4,-327.62 575.88,-327.62 575.88,4 -4,4"/>
<!-- ref -->
<g id="node1" class="node">
<title>ref</title>
<path fill="gray" stroke="black" d="M294,-96.88C294,-102.22 281.9,-106.56 267,-106.56 252.1,-106.56 240,-102.22 240,-96.88 240,-96.88 240,-9.69 240,-9.69 240,-4.34 252.1,0 267,0 281.9,0 294,-4.34 294,-9.69 294,-9.69 294,-96.88 294,-96.88"/>
<path fill="none" stroke="black" d="M294,-96.88C294,-91.53 281.9,-87.19 267,-87.19 252.1,-87.19 240,-91.53 240,-96.88"/>
<polygon fill="none" stroke="black" points="250,-61.53 250,-88.03 284,-88.03 284,-61.53 250,-61.53"/>
<text xml:space="preserve" text-anchor="start" x="255" y="-70.73" font-family="Times New Roman,serif" font-size="14.00"> </text>
<text xml:space="preserve" text-anchor="start" x="258.75" y="-70.73" font-family="Times New Roman,serif" font-weight="bold" font-size="14.00">ref</text>
<text xml:space="preserve" text-anchor="start" x="275.25" y="-70.73" font-family="Times New Roman,serif" font-size="14.00"> </text>
<polygon fill="none" stroke="black" points="250,-18.53 250,-61.53 284,-61.53 284,-18.53 250,-18.53"/>
<text xml:space="preserve" text-anchor="start" x="255" y="-43.23" font-family="Times New Roman,serif" font-size="14.00">... </text>
<text xml:space="preserve" text-anchor="start" x="260.62" y="-26.73" font-family="Times New Roman,serif" font-size="14.00"> </text>
</g>
<!-- dat -->
<g id="node2" class="node">
<title>dat</title>
<path fill="gray" stroke="black" d="M306,-218.81C306,-223.02 293.9,-226.44 279,-226.44 264.1,-226.44 252,-223.02 252,-218.81 252,-218.81 252,-150.19 252,-150.19 252,-145.98 264.1,-142.56 279,-142.56 293.9,-142.56 306,-145.98 306,-150.19 306,-150.19 306,-218.81 306,-218.81"/>
<path fill="none" stroke="black" d="M306,-218.81C306,-214.61 293.9,-211.19 279,-211.19 264.1,-211.19 252,-214.61 252,-218.81"/>
<polygon fill="none" stroke="black" points="260.88,-184.5 260.88,-211 297.12,-211 297.12,-184.5 260.88,-184.5"/>
<text xml:space="preserve" text-anchor="start" x="265.88" y="-193.7" font-family="Times New Roman,serif" font-size="14.00"> </text>
<text xml:space="preserve" text-anchor="start" x="269.62" y="-193.7" font-family="Times New Roman,serif" font-weight="bold" font-size="14.00">dat</text>
<text xml:space="preserve" text-anchor="start" x="288.38" y="-193.7" font-family="Times New Roman,serif" font-size="14.00"> </text>
<polygon fill="none" stroke="black" points="260.88,-158 260.88,-184.5 297.12,-184.5 297.12,-158 260.88,-158"/>
<text xml:space="preserve" text-anchor="start" x="265.88" y="-149.7" font-family="Times New Roman,serif" font-size="14.00"> </text>
</g>
<!-- refeel -->
<g id="node3" class="node">
<title>refeel</title>
<path fill="pink" stroke="black" d="M233.88,-209.53C233.88,-212.6 219.14,-215.09 201,-215.09 182.86,-215.09 168.12,-212.6 168.12,-209.53 168.12,-209.53 168.12,-159.47 168.12,-159.47 168.12,-156.4 182.86,-153.91 201,-153.91 219.14,-153.91 233.88,-156.4 233.88,-159.47 233.88,-159.47 233.88,-209.53 233.88,-209.53"/>
<path fill="none" stroke="black" d="M233.88,-209.53C233.88,-206.46 219.14,-203.97 201,-203.97 182.86,-203.97 168.12,-206.46 168.12,-209.53"/>
<polygon fill="none" stroke="black" points="176.12,-176.25 176.12,-202.75 225.88,-202.75 225.88,-176.25 176.12,-176.25"/>
<text xml:space="preserve" text-anchor="start" x="181.12" y="-185.45" font-family="Times New Roman,serif" font-size="14.00"> </text>
<text xml:space="preserve" text-anchor="start" x="184.88" y="-185.45" font-family="Times New Roman,serif" font-weight="bold" font-size="14.00">refeel</text>
<text xml:space="preserve" text-anchor="start" x="217.12" y="-185.45" font-family="Times New Roman,serif" font-size="14.00"> </text>
<polygon fill="none" stroke="black" points="176.12,-166.25 176.12,-176.25 225.88,-176.25 225.88,-166.25 176.12,-166.25"/>
</g>
<!-- refeel&#45;&gt;ref -->
<g id="edge1" class="edge">
<title>refeel&#45;&gt;ref</title>
<path fill="none" stroke="black" stroke-dasharray="5,2" d="M216.31,-153.53C222.44,-141.53 229.72,-127.27 236.83,-113.35"/>
<polygon fill="black" stroke="black" points="239.83,-115.16 241.27,-104.67 233.6,-111.98 239.83,-115.16"/>
</g>
<!-- dateel -->
<g id="node4" class="node">
<title>dateel</title>
<path fill="pink" stroke="black" d="M235,-318.06C235,-321.13 219.76,-323.62 201,-323.62 182.24,-323.62 167,-321.13 167,-318.06 167,-318.06 167,-268 167,-268 167,-264.93 182.24,-262.44 201,-262.44 219.76,-262.44 235,-264.93 235,-268 235,-268 235,-318.06 235,-318.06"/>
<path fill="none" stroke="black" d="M235,-318.06C235,-314.99 219.76,-312.5 201,-312.5 182.24,-312.5 167,-314.99 167,-318.06"/>
<polygon fill="none" stroke="black" points="175,-284.78 175,-311.28 227,-311.28 227,-284.78 175,-284.78"/>
<text xml:space="preserve" text-anchor="start" x="180" y="-293.98" font-family="Times New Roman,serif" font-size="14.00"> </text>
<text xml:space="preserve" text-anchor="start" x="183.75" y="-293.98" font-family="Times New Roman,serif" font-weight="bold" font-size="14.00">dateel</text>
<text xml:space="preserve" text-anchor="start" x="218.25" y="-293.98" font-family="Times New Roman,serif" font-size="14.00"> </text>
<polygon fill="none" stroke="black" points="175,-274.78 175,-284.78 227,-284.78 227,-274.78 175,-274.78"/>
</g>
<!-- dateel&#45;&gt;ref -->
<g id="edge13" class="edge">
<title>dateel&#45;&gt;ref</title>
<path fill="none" stroke="black" d="M177.23,-262.78C169.89,-252.01 162.76,-239.29 159,-226.44 148.53,-190.66 143.03,-176.25 159,-142.56 173.59,-111.79 204.74,-88.19 229.85,-73.16"/>
<polygon fill="black" stroke="black" points="231.58,-76.21 238.52,-68.2 228.1,-70.13 231.58,-76.21"/>
</g>
<!-- dateel&#45;&gt;dat -->
<g id="edge5" class="edge">
<title>dateel&#45;&gt;dat</title>
<path fill="none" stroke="black" stroke-dasharray="5,2" d="M222.52,-262.64C229.5,-253.11 237.41,-242.3 245.06,-231.85"/>
<polygon fill="black" stroke="black" points="247.71,-234.16 250.79,-224.02 242.06,-230.02 247.71,-234.16"/>
</g>
<!-- dateel&#45;&gt;refeel -->
<g id="edge9" class="edge">
<title>dateel&#45;&gt;refeel</title>
<path fill="none" stroke="black" d="M201,-262.07C201,-251.09 201,-238.46 201,-226.66"/>
<polygon fill="black" stroke="black" points="204.5,-226.75 201,-216.75 197.5,-226.75 204.5,-226.75"/>
</g>
<!-- refbast -->
<g id="node5" class="node">
<title>refbast</title>
<path fill="purple" stroke="black" d="M74,-209.53C74,-212.6 57.42,-215.09 37,-215.09 16.58,-215.09 0,-212.6 0,-209.53 0,-209.53 0,-159.47 0,-159.47 0,-156.4 16.58,-153.91 37,-153.91 57.42,-153.91 74,-156.4 74,-159.47 74,-159.47 74,-209.53 74,-209.53"/>
<path fill="none" stroke="black" d="M74,-209.53C74,-206.46 57.42,-203.97 37,-203.97 16.58,-203.97 0,-206.46 0,-209.53"/>
<polygon fill="none" stroke="black" points="8,-176.25 8,-202.75 66,-202.75 66,-176.25 8,-176.25"/>
<text xml:space="preserve" text-anchor="start" x="13" y="-185.45" font-family="Times New Roman,serif" font-size="14.00"> </text>
<text xml:space="preserve" text-anchor="start" x="16.75" y="-185.45" font-family="Times New Roman,serif" font-weight="bold" font-size="14.00">refbast</text>
<text xml:space="preserve" text-anchor="start" x="57.25" y="-185.45" font-family="Times New Roman,serif" font-size="14.00"> </text>
<polygon fill="none" stroke="black" points="8,-166.25 8,-176.25 66,-176.25 66,-166.25 8,-166.25"/>
</g>
<!-- refbast&#45;&gt;ref -->
<g id="edge2" class="edge">
<title>refbast&#45;&gt;ref</title>
<path fill="none" stroke="black" stroke-dasharray="5,2" d="M69.97,-155.33C75.82,-150.84 81.97,-146.41 88,-142.56 134.41,-112.99 192.13,-86.13 229.27,-70"/>
<polygon fill="black" stroke="black" points="230.43,-73.31 238.24,-66.15 227.67,-66.88 230.43,-73.31"/>
</g>
<!-- datbast -->
<g id="node6" class="node">
<title>datbast</title>
<path fill="purple" stroke="black" d="M140.12,-318.06C140.12,-321.13 123.04,-323.62 102,-323.62 80.96,-323.62 63.88,-321.13 63.88,-318.06 63.88,-318.06 63.88,-268 63.88,-268 63.88,-264.93 80.96,-262.44 102,-262.44 123.04,-262.44 140.12,-264.93 140.12,-268 140.12,-268 140.12,-318.06 140.12,-318.06"/>
<path fill="none" stroke="black" d="M140.12,-318.06C140.12,-314.99 123.04,-312.5 102,-312.5 80.96,-312.5 63.88,-314.99 63.88,-318.06"/>
<polygon fill="none" stroke="black" points="71.88,-284.78 71.88,-311.28 132.12,-311.28 132.12,-284.78 71.88,-284.78"/>
<text xml:space="preserve" text-anchor="start" x="76.88" y="-293.98" font-family="Times New Roman,serif" font-size="14.00"> </text>
<text xml:space="preserve" text-anchor="start" x="80.62" y="-293.98" font-family="Times New Roman,serif" font-weight="bold" font-size="14.00">datbast</text>
<text xml:space="preserve" text-anchor="start" x="123.38" y="-293.98" font-family="Times New Roman,serif" font-size="14.00"> </text>
<polygon fill="none" stroke="black" points="71.88,-274.78 71.88,-284.78 132.12,-284.78 132.12,-274.78 71.88,-274.78"/>
</g>
<!-- datbast&#45;&gt;ref -->
<g id="edge16" class="edge">
<title>datbast&#45;&gt;ref</title>
<path fill="none" stroke="black" d="M104.81,-262.04C109.06,-229.95 119.55,-178.8 145,-142.56 166.58,-111.83 202.36,-87.79 229.6,-72.61"/>
<polygon fill="black" stroke="black" points="231.11,-75.77 238.25,-67.95 227.78,-69.61 231.11,-75.77"/>
</g>
<!-- datbast&#45;&gt;dat -->
<g id="edge7" class="edge">
<title>datbast&#45;&gt;dat</title>
<path fill="none" stroke="black" stroke-dasharray="5,2" d="M140.34,-271.22C146.21,-268.19 152.24,-265.17 158,-262.44 195.06,-244.84 209.73,-250.44 243,-226.44 243.1,-226.37 243.19,-226.3 243.29,-226.23"/>
<polygon fill="black" stroke="black" points="245.33,-229.09 250.76,-219.99 240.84,-223.71 245.33,-229.09"/>
</g>
<!-- datbast&#45;&gt;refbast -->
<g id="edge12" class="edge">
<title>datbast&#45;&gt;refbast</title>
<path fill="none" stroke="black" d="M83.72,-262.07C76.67,-250.52 68.5,-237.13 60.99,-224.82"/>
<polygon fill="black" stroke="black" points="64.13,-223.24 55.93,-216.53 58.15,-226.89 64.13,-223.24"/>
</g>
<!-- refnas -->
<g id="node7" class="node">
<title>refnas</title>
<path fill="limegreen" stroke="black" d="M431.75,-209.53C431.75,-212.6 416.17,-215.09 397,-215.09 377.83,-215.09 362.25,-212.6 362.25,-209.53 362.25,-209.53 362.25,-159.47 362.25,-159.47 362.25,-156.4 377.83,-153.91 397,-153.91 416.17,-153.91 431.75,-156.4 431.75,-159.47 431.75,-159.47 431.75,-209.53 431.75,-209.53"/>
<path fill="none" stroke="black" d="M431.75,-209.53C431.75,-206.46 416.17,-203.97 397,-203.97 377.83,-203.97 362.25,-206.46 362.25,-209.53"/>
<polygon fill="none" stroke="black" points="370.25,-176.25 370.25,-202.75 423.75,-202.75 423.75,-176.25 370.25,-176.25"/>
<text xml:space="preserve" text-anchor="start" x="375.25" y="-185.45" font-family="Times New Roman,serif" font-size="14.00"> </text>
<text xml:space="preserve" text-anchor="start" x="379" y="-185.45" font-family="Times New Roman,serif" font-weight="bold" font-size="14.00">refnas</text>
<text xml:space="preserve" text-anchor="start" x="415" y="-185.45" font-family="Times New Roman,serif" font-size="14.00"> </text>
<polygon fill="none" stroke="black" points="370.25,-166.25 370.25,-176.25 423.75,-176.25 423.75,-166.25 370.25,-166.25"/>
</g>
<!-- refnas&#45;&gt;ref -->
<g id="edge3" class="edge">
<title>refnas&#45;&gt;ref</title>
<path fill="none" stroke="black" stroke-dasharray="5,2" d="M368.47,-155.14C348.94,-135.73 322.91,-109.86 302.11,-89.18"/>
<polygon fill="black" stroke="black" points="304.76,-86.88 295.2,-82.31 299.83,-91.85 304.76,-86.88"/>
</g>
<!-- datnas -->
<g id="node8" class="node">
<title>datnas</title>
<path fill="limegreen" stroke="black" d="M369.88,-318.06C369.88,-321.13 353.8,-323.62 334,-323.62 314.2,-323.62 298.12,-321.13 298.12,-318.06 298.12,-318.06 298.12,-268 298.12,-268 298.12,-264.93 314.2,-262.44 334,-262.44 353.8,-262.44 369.88,-264.93 369.88,-268 369.88,-268 369.88,-318.06 369.88,-318.06"/>
<path fill="none" stroke="black" d="M369.88,-318.06C369.88,-314.99 353.8,-312.5 334,-312.5 314.2,-312.5 298.12,-314.99 298.12,-318.06"/>
<polygon fill="none" stroke="black" points="306.12,-284.78 306.12,-311.28 361.88,-311.28 361.88,-284.78 306.12,-284.78"/>
<text xml:space="preserve" text-anchor="start" x="311.12" y="-293.98" font-family="Times New Roman,serif" font-size="14.00"> </text>
<text xml:space="preserve" text-anchor="start" x="314.88" y="-293.98" font-family="Times New Roman,serif" font-weight="bold" font-size="14.00">datnas</text>
<text xml:space="preserve" text-anchor="start" x="353.12" y="-293.98" font-family="Times New Roman,serif" font-size="14.00"> </text>
<polygon fill="none" stroke="black" points="306.12,-274.78 306.12,-284.78 361.88,-284.78 361.88,-274.78 306.12,-274.78"/>
</g>
<!-- datnas&#45;&gt;ref -->
<g id="edge14" class="edge">
<title>datnas&#45;&gt;ref</title>
<path fill="none" stroke="black" d="M333.44,-262.12C332.12,-231.43 327.94,-182.64 315,-142.56 311.1,-130.49 305.55,-118.16 299.59,-106.68"/>
<polygon fill="black" stroke="black" points="302.83,-105.32 295,-98.18 296.67,-108.64 302.83,-105.32"/>
</g>
<!-- datnas&#45;&gt;dat -->
<g id="edge6" class="edge">
<title>datnas&#45;&gt;dat</title>
<path fill="none" stroke="black" stroke-dasharray="5,2" d="M318.53,-262.07C314.24,-253.76 309.46,-244.5 304.75,-235.37"/>
<polygon fill="black" stroke="black" points="307.88,-233.8 300.18,-226.52 301.66,-237.01 307.88,-233.8"/>
</g>
<!-- datnas&#45;&gt;refnas -->
<g id="edge10" class="edge">
<title>datnas&#45;&gt;refnas</title>
<path fill="none" stroke="black" d="M351.72,-262.07C358.55,-250.52 366.46,-237.13 373.75,-224.82"/>
<polygon fill="black" stroke="black" points="376.57,-226.93 378.65,-216.54 370.54,-223.36 376.57,-226.93"/>
</g>
<!-- reftrutta -->
<g id="node9" class="node">
<title>reftrutta</title>
<path fill="#ffa54f" stroke="black" d="M571.88,-209.53C571.88,-212.6 553.11,-215.09 530,-215.09 506.89,-215.09 488.12,-212.6 488.12,-209.53 488.12,-209.53 488.12,-159.47 488.12,-159.47 488.12,-156.4 506.89,-153.91 530,-153.91 553.11,-153.91 571.88,-156.4 571.88,-159.47 571.88,-159.47 571.88,-209.53 571.88,-209.53"/>
<path fill="none" stroke="black" d="M571.88,-209.53C571.88,-206.46 553.11,-203.97 530,-203.97 506.89,-203.97 488.12,-206.46 488.12,-209.53"/>
<polygon fill="none" stroke="black" points="496.12,-176.25 496.12,-202.75 563.88,-202.75 563.88,-176.25 496.12,-176.25"/>
<text xml:space="preserve" text-anchor="start" x="501.12" y="-185.45" font-family="Times New Roman,serif" font-size="14.00"> </text>
<text xml:space="preserve" text-anchor="start" x="504.88" y="-185.45" font-family="Times New Roman,serif" font-weight="bold" font-size="14.00">reftrutta</text>
<text xml:space="preserve" text-anchor="start" x="555.12" y="-185.45" font-family="Times New Roman,serif" font-size="14.00"> </text>
<polygon fill="none" stroke="black" points="496.12,-166.25 496.12,-176.25 563.88,-176.25 563.88,-166.25 496.12,-166.25"/>
</g>
<!-- reftrutta&#45;&gt;ref -->
<g id="edge4" class="edge">
<title>reftrutta&#45;&gt;ref</title>
<path fill="none" stroke="black" stroke-dasharray="5,2" d="M493.75,-155.18C487.34,-150.7 480.59,-146.31 474,-142.56 417.73,-110.56 347.58,-83 305.1,-67.54"/>
<polygon fill="black" stroke="black" points="306.42,-64.29 295.82,-64.2 304.05,-70.88 306.42,-64.29"/>
</g>
<!-- dattrutta -->
<g id="node10" class="node">
<title>dattrutta</title>
<path fill="#ffa54f" stroke="black" d="M503,-318.06C503,-321.13 483.73,-323.62 460,-323.62 436.27,-323.62 417,-321.13 417,-318.06 417,-318.06 417,-268 417,-268 417,-264.93 436.27,-262.44 460,-262.44 483.73,-262.44 503,-264.93 503,-268 503,-268 503,-318.06 503,-318.06"/>
<path fill="none" stroke="black" d="M503,-318.06C503,-314.99 483.73,-312.5 460,-312.5 436.27,-312.5 417,-314.99 417,-318.06"/>
<polygon fill="none" stroke="black" points="425,-284.78 425,-311.28 495,-311.28 495,-284.78 425,-284.78"/>
<text xml:space="preserve" text-anchor="start" x="430" y="-293.98" font-family="Times New Roman,serif" font-size="14.00"> </text>
<text xml:space="preserve" text-anchor="start" x="433.75" y="-293.98" font-family="Times New Roman,serif" font-weight="bold" font-size="14.00">dattrutta</text>
<text xml:space="preserve" text-anchor="start" x="486.25" y="-293.98" font-family="Times New Roman,serif" font-size="14.00"> </text>
<polygon fill="none" stroke="black" points="425,-274.78 425,-284.78 495,-284.78 495,-274.78 425,-274.78"/>
</g>
<!-- dattrutta&#45;&gt;ref -->
<g id="edge15" class="edge">
<title>dattrutta&#45;&gt;ref</title>
<path fill="none" stroke="black" d="M463.93,-262.17C466.57,-229.74 465.86,-177.84 441,-142.56 408.88,-96.98 346.11,-73.51 305.39,-62.57"/>
<polygon fill="black" stroke="black" points="306.31,-59.19 295.75,-60.12 304.58,-65.97 306.31,-59.19"/>
</g>
<!-- dattrutta&#45;&gt;dat -->
<g id="edge8" class="edge">
<title>dattrutta&#45;&gt;dat</title>
<path fill="none" stroke="black" stroke-dasharray="5,2" d="M416.65,-266.51C385.96,-248.45 345.24,-224.49 316.07,-207.32"/>
<polygon fill="black" stroke="black" points="317.96,-204.37 307.57,-202.31 314.41,-210.4 317.96,-204.37"/>
</g>
<!-- dattrutta&#45;&gt;reftrutta -->
<g id="edge11" class="edge">
<title>dattrutta&#45;&gt;reftrutta</title>
<path fill="none" stroke="black" d="M479.69,-262.07C487.28,-250.52 496.07,-237.13 504.16,-224.82"/>
<polygon fill="black" stroke="black" points="507.06,-226.78 509.63,-216.5 501.21,-222.93 507.06,-226.78"/>
</g>
</g>
</svg>
