<?xml version="1.0" encoding="UTF-8" standalone="no"?>
<!DOCTYPE svg PUBLIC "-//W3C//DTD SVG 1.1//EN"
 "http://www.w3.org/Graphics/SVG/1.1/DTD/svg11.dtd">
<!-- Generated by graphviz version 14.0.5 (20251129.0259)
 -->
<!-- Pages: 1 -->
<svg width="393pt" height="384pt"
 viewBox="0.00 0.00 393.00 384.00" xmlns="http://www.w3.org/2000/svg" xmlns:xlink="http://www.w3.org/1999/xlink">
<g id="graph0" class="graph" transform="scale(1 1) rotate(0) translate(4 380)">
<polygon fill="white" stroke="none" points="-4,4 -4,-380 389,-380 389,4 -4,4"/>
<g id="clust1" class="cluster">
<title>clusterA</title>
<polygon fill="none" stroke="black" points="8,-8 8,-368 377,-368 377,-8 8,-8"/>
<text xml:space="preserve" text-anchor="middle" x="192.5" y="-350.7" font-family="Times New Roman,serif" font-size="14.00">Panpopulation</text>
</g>
<g id="clust2" class="cluster">
<title>clusterB</title>
<polygon fill="none" stroke="black" stroke-dasharray="5,2" points="16,-16 16,-335.5 369,-335.5 369,-16 16,-16"/>
<text xml:space="preserve" text-anchor="middle" x="192.5" y="-318.2" font-family="Times New Roman,serif" font-size="14.00">Complex</text>
</g>
<g id="clust3" class="cluster">
<title>clusterC</title>
<polygon fill="none" stroke="black" stroke-dasharray="5,2" points="24,-24 24,-303 195,-303 195,-24 24,-24"/>
<text xml:space="preserve" text-anchor="middle" x="109.5" y="-285.7" font-family="Times New Roman,serif" font-size="14.00">Stock</text>
</g>
<g id="clust4" class="cluster">
<title>clusterD</title>
<polygon fill="none" stroke="firebrick" stroke-dasharray="5,2" points="32,-32 32,-270.5 187,-270.5 187,-32 32,-32"/>
<text xml:space="preserve" text-anchor="middle" x="109.5" y="-253.2" font-family="Times New Roman,serif" font-size="14.00" fill="firebrick">Country</text>
</g>
<g id="clust5" class="cluster">
<title>clusterE</title>
<polygon fill="none" stroke="green" points="40,-40 40,-238 179,-238 179,-40 40,-40"/>
<text xml:space="preserve" text-anchor="middle" x="109.5" y="-220.7" font-family="Times New Roman,serif" font-size="14.00" fill="green">Assessment_unit</text>
</g>
<g id="clust6" class="cluster">
<title>clusterF</title>
<polygon fill="none" stroke="#008b00" stroke-dasharray="5,2" points="48,-48 48,-205.5 171,-205.5 171,-48 48,-48"/>
<text xml:space="preserve" text-anchor="middle" x="109.5" y="-188.2" font-family="Times New Roman,serif" font-size="14.00" fill="#008b00">Regional</text>
</g>
<g id="clust7" class="cluster">
<title>clusterG</title>
<polygon fill="none" stroke="#00cd00" stroke-dasharray="5,2" points="56,-56 56,-173 163,-173 163,-56 56,-56"/>
<text xml:space="preserve" text-anchor="middle" x="109.5" y="-155.7" font-family="Times New Roman,serif" font-size="14.00" fill="#00cd00">River</text>
</g>
<g id="clust8" class="cluster">
<title>clusterH</title>
<polygon fill="none" stroke="#00ee00" stroke-dasharray="5,2" points="64,-64 64,-140.5 155,-140.5 155,-64 64,-64"/>
<text xml:space="preserve" text-anchor="middle" x="109.5" y="-123.2" font-family="Times New Roman,serif" font-size="14.00" fill="#00ee00">River_section</text>
</g>
<g id="clust9" class="cluster">
<title>clusterZ</title>
<polygon fill="none" stroke="#27408b" stroke-dasharray="5,2" points="203,-32 203,-270.5 361,-270.5 361,-32 203,-32"/>
<text xml:space="preserve" text-anchor="middle" x="282" y="-253.2" font-family="Times New Roman,serif" font-size="14.00" fill="#27408b">Major</text>
</g>
<g id="clust10" class="cluster">
<title>clusterY</title>
<polygon fill="none" stroke="#3a5fcd" stroke-dasharray="5,2" points="211,-40 211,-238 353,-238 353,-40 211,-40"/>
<text xml:space="preserve" text-anchor="middle" x="282" y="-220.7" font-family="Times New Roman,serif" font-size="14.00" fill="#3a5fcd">Subareas</text>
</g>
<g id="clust11" class="cluster">
<title>clusterX</title>
<polygon fill="none" stroke="#436eee" stroke-dasharray="5,2" points="219,-48 219,-205.5 345,-205.5 345,-48 219,-48"/>
<text xml:space="preserve" text-anchor="middle" x="282" y="-188.2" font-family="Times New Roman,serif" font-size="14.00" fill="#436eee">Division</text>
</g>
<g id="clust12" class="cluster">
<title>clusterW</title>
<polygon fill="none" stroke="#4876ff" points="227,-56 227,-173 337,-173 337,-56 227,-56"/>
<text xml:space="preserve" text-anchor="middle" x="282" y="-155.7" font-family="Times New Roman,serif" font-size="14.00" fill="#4876ff">Sudivision</text>
</g>
<g id="clust13" class="cluster">
<title>clusterV</title>
<polygon fill="none" stroke="deepskyblue" stroke-dasharray="5,2" points="235,-64 235,-140.5 329,-140.5 329,-64 235,-64"/>
<text xml:space="preserve" text-anchor="middle" x="282" y="-123.2" font-family="Times New Roman,serif" font-size="14.00" fill="deepskyblue">Unit</text>
</g>
<!-- section -->
<!-- Fishing -->
</g>
</svg>
