<?xml version="1.0" encoding="UTF-8" standalone="no"?>
<!DOCTYPE svg PUBLIC "-//W3C//DTD SVG 1.1//EN"
 "http://www.w3.org/Graphics/SVG/1.1/DTD/svg11.dtd">
<!-- Generated by graphviz version 14.0.5 (20251129.0259)
 -->
<!-- Title: schema Pages: 1 -->
<svg width="548pt" height="360pt"
 viewBox="0.00 0.00 548.00 360.00" xmlns="http://www.w3.org/2000/svg" xmlns:xlink="http://www.w3.org/1999/xlink">
<g id="graph0" class="graph" transform="scale(0.379747 0.379747) rotate(0) translate(4 944)">
<title>schema</title>
<polygon fill="white" stroke="none" points="-4,4 -4,-944 1439.85,-944 1439.85,4 -4,4"/>
<!-- stationDictionary -->
<g id="node1" class="node">
<title>stationDictionary</title>
<polygon fill="gray" stroke="black" points="219.98,-189.5 30.48,-189.5 30.48,0 219.98,0 219.98,-189.5"/>
<polyline fill="none" stroke="black" points="42.48,-189.5 30.48,-177.5"/>
<polyline fill="none" stroke="black" points="30.48,-12 42.48,0"/>
<polyline fill="none" stroke="black" points="207.98,0 219.98,-12"/>
<polyline fill="none" stroke="black" points="219.98,-177.5 207.98,-189.5"/>
<polygon fill="none" stroke="black" points="38.48,-111.25 38.48,-137.75 211.98,-137.75 211.98,-111.25 38.48,-111.25"/>
<text xml:space="preserve" text-anchor="start" x="59.98" y="-120.45" font-family="Times New Roman,serif" font-size="14.00"> </text>
<text xml:space="preserve" text-anchor="start" x="63.73" y="-120.45" font-family="Times New Roman,serif" font-weight="bold" font-size="14.00">ref.StationDictionary</text>
<text xml:space="preserve" text-anchor="start" x="186.73" y="-120.45" font-family="Times New Roman,serif" font-size="14.00"> </text>
<polygon fill="none" stroke="black" points="38.48,-51.75 38.48,-111.25 211.98,-111.25 211.98,-51.75 38.48,-51.75"/>
<text xml:space="preserve" text-anchor="start" x="43.48" y="-92.95" font-family="Times New Roman,serif" font-size="14.00"> &#160;&#160;&#160;&#160;&#160;&#160;&#160;sta_code (integer) &#160;</text>
<text xml:space="preserve" text-anchor="start" x="43.48" y="-76.45" font-family="Times New Roman,serif" font-size="14.00"> &#160;&#160;&#160;&#160;&#160;&#160;&#160;sta_activefromdate date </text>
<text xml:space="preserve" text-anchor="start" x="44.6" y="-59.95" font-family="Times New Roman,serif" font-size="14.00"> &#160;&#160;&#160;&#160;&#160;&#160;&#160;sta_activeuntildate date </text>
</g>
<!-- ts -->
<g id="node2" class="node">
<title>ts</title>
<polygon fill="gray" stroke="black" points="543.85,-56 543.85,-133.5 636.6,-133.5 636.6,-56 543.85,-56"/>
<polygon fill="none" stroke="black" points="551.85,-103 551.85,-129.5 628.6,-129.5 628.6,-103 551.85,-103"/>
<text xml:space="preserve" text-anchor="start" x="559.1" y="-112.2" font-family="Times New Roman,serif" font-size="14.00"> </text>
<text xml:space="preserve" text-anchor="start" x="562.85" y="-112.2" font-family="Times New Roman,serif" font-weight="bold" font-size="14.00">dat.series</text>
<text xml:space="preserve" text-anchor="start" x="617.6" y="-112.2" font-family="Times New Roman,serif" font-size="14.00"> </text>
<polygon fill="none" stroke="black" points="551.85,-60 551.85,-103 628.6,-103 628.6,-60 551.85,-60"/>
<text xml:space="preserve" text-anchor="start" x="556.85" y="-84.7" font-family="Times New Roman,serif" font-size="14.00"> &#160;&#160;&#160;&#160;&#160;&#160;&#160;ser_id </text>
<text xml:space="preserve" text-anchor="start" x="562.1" y="-68.2" font-family="Times New Roman,serif" font-size="14.00"> &#160;&#160;&#160;&#160;&#160;&#160;&#160;... &#160;&#160;&#160;</text>
</g>
<!-- metts -->
<g id="node3" class="node">
<title>metts</title>
<polygon fill="gray" stroke="black" points="1435.85,-850.5 1432.85,-854.5 1411.85,-854.5 1408.85,-850.5 1224.6,-850.5 1224.6,-707 1435.85,-707 1435.85,-850.5"/>
<polygon fill="none" stroke="black" points="1232.6,-820 1232.6,-846.5 1427.85,-846.5 1427.85,-820 1232.6,-820"/>
<text xml:space="preserve" text-anchor="start" x="1267.6" y="-829.2" font-family="Times New Roman,serif" font-size="14.00"> </text>
<text xml:space="preserve" text-anchor="start" x="1271.35" y="-829.2" font-family="Times New Roman,serif" font-weight="bold" font-size="14.00"> dat.metadata&#45;series</text>
<text xml:space="preserve" text-anchor="start" x="1389.1" y="-829.2" font-family="Times New Roman,serif" font-size="14.00"> </text>
<polygon fill="none" stroke="black" points="1232.6,-754 1232.6,-820 1427.85,-820 1427.85,-754 1232.6,-754"/>
<text xml:space="preserve" text-anchor="start" x="1276.6" y="-802.7" font-family="Times New Roman,serif" font-style="italic" font-size="14.00">These are metadata</text>
<text xml:space="preserve" text-anchor="start" x="1237.6" y="-788.7" font-family="Times New Roman,serif" font-size="14.00"> &#160;&#160;&#160;&#160;&#160;&#160;&#160;&#160;&#160;&#160;</text>
<text xml:space="preserve" text-anchor="start" x="1278.85" y="-788.7" font-family="Times New Roman,serif" font-style="italic" font-size="14.00">created during benchmark</text>
<text xml:space="preserve" text-anchor="start" x="1256.73" y="-774.7" font-family="Times New Roman,serif" font-size="14.00"> &#160;&#160;&#160;&#160;&#160;&#160;&#160;&#160;&#160;&#160;</text>
<text xml:space="preserve" text-anchor="start" x="1297.98" y="-774.7" font-family="Times New Roman,serif" font-style="italic" font-size="14.00">probably not in DB</text>
<text xml:space="preserve" text-anchor="start" x="1315.23" y="-760.7" font-family="Times New Roman,serif" font-size="14.00"> &#160;&#160;&#160;&#160;&#160;&#160;&#160;</text>
<polygon fill="none" stroke="black" points="1232.6,-711 1232.6,-754 1427.85,-754 1427.85,-711 1232.6,-711"/>
<text xml:space="preserve" text-anchor="start" x="1237.6" y="-735.7" font-family="Times New Roman,serif" font-size="14.00"> &#160;&#160;&#160;&#160;&#160;&#160;ser_id &#160;</text>
<text xml:space="preserve" text-anchor="start" x="1242.85" y="-719.2" font-family="Times New Roman,serif" font-size="14.00"> &#160;&#160;&#160;&#160;&#160;&#160;... &#160;&#160;&#160;&#160;</text>
</g>
<!-- station_ts_join -->
<g id="node4" class="node">
<title>station_ts_join</title>
<polygon fill="gray" stroke="black" points="240.23,-362.5 237.23,-366.5 216.23,-366.5 213.23,-362.5 10.23,-362.5 10.23,-242 240.23,-242 240.23,-362.5"/>
<polygon fill="none" stroke="black" points="18.23,-332 18.23,-358.5 232.23,-358.5 232.23,-332 18.23,-332"/>
<text xml:space="preserve" text-anchor="start" x="55.1" y="-341.2" font-family="Times New Roman,serif" font-size="14.00"> </text>
<text xml:space="preserve" text-anchor="start" x="58.85" y="-341.2" font-family="Times New Roman,serif" font-weight="bold" font-size="14.00"> dat.series&#45;station&#45;join </text>
<text xml:space="preserve" text-anchor="start" x="191.6" y="-341.2" font-family="Times New Roman,serif" font-size="14.00"> </text>
<polygon fill="none" stroke="black" points="18.23,-305.5 18.23,-332 232.23,-332 232.23,-305.5 18.23,-305.5"/>
<text xml:space="preserve" text-anchor="start" x="23.23" y="-314.7" font-family="Times New Roman,serif" font-style="italic" font-size="14.00">One series can have multiple stations</text>
<polygon fill="none" stroke="black" points="18.23,-246 18.23,-305.5 232.23,-305.5 232.23,-246 18.23,-246"/>
<text xml:space="preserve" text-anchor="start" x="23.23" y="-287.2" font-family="Times New Roman,serif" font-size="14.00"> &#160;&#160;&#160;&#160;&#160;&#160;ser_id &#160;</text>
<text xml:space="preserve" text-anchor="start" x="23.23" y="-270.7" font-family="Times New Roman,serif" font-size="14.00"> &#160;&#160;&#160;&#160;&#160;&#160;StationCode </text>
<text xml:space="preserve" text-anchor="start" x="58.48" y="-254.2" font-family="Times New Roman,serif" font-size="14.00"> &#160;&#160;&#160;&#160;&#160;&#160;</text>
</g>
<!-- station_ts_join&#45;&gt;stationDictionary -->
<g id="edge2" class="edge">
<title>station_ts_join&#45;&gt;stationDictionary</title>
<path fill="none" stroke="black" d="M125.23,-241.53C125.23,-228.72 125.23,-214.82 125.23,-200.87"/>
<polygon fill="black" stroke="black" points="128.73,-201.19 125.23,-191.19 121.73,-201.19 128.73,-201.19"/>
<text xml:space="preserve" text-anchor="middle" x="133.85" y="-210.7" font-family="Times New Roman,serif" font-size="14.00">1:n</text>
</g>
<!-- station_ts_join&#45;&gt;ts -->
<g id="edge1" class="edge">
<title>station_ts_join&#45;&gt;ts</title>
<path fill="none" stroke="black" d="M192.98,-241.6C209.27,-229.17 227.14,-216.98 244.98,-207.5 340.02,-156.97 461.99,-124.11 532.6,-107.84"/>
<polygon fill="black" stroke="black" points="533.03,-111.34 542.01,-105.71 531.48,-104.51 533.03,-111.34"/>
<text xml:space="preserve" text-anchor="middle" x="253.6" y="-210.7" font-family="Times New Roman,serif" font-size="14.00">n:1</text>
</g>
<!-- ann -->
<g id="node5" class="node">
<title>ann</title>
<polygon fill="gray" stroke="black" points="311.98,-255.25 311.98,-349.25 444.48,-349.25 444.48,-255.25 311.98,-255.25"/>
<polygon fill="none" stroke="black" points="319.98,-318.75 319.98,-345.25 436.48,-345.25 436.48,-318.75 319.98,-318.75"/>
<text xml:space="preserve" text-anchor="start" x="324.98" y="-327.95" font-family="Times New Roman,serif" font-size="14.00"> </text>
<text xml:space="preserve" text-anchor="start" x="328.73" y="-327.95" font-family="Times New Roman,serif" font-weight="bold" font-size="14.00">dat.annual&#45;series</text>
<text xml:space="preserve" text-anchor="start" x="427.73" y="-327.95" font-family="Times New Roman,serif" font-size="14.00"> </text>
<polygon fill="none" stroke="black" points="319.98,-259.25 319.98,-318.75 436.48,-318.75 436.48,-259.25 319.98,-259.25"/>
<text xml:space="preserve" text-anchor="start" x="324.98" y="-300.45" font-family="Times New Roman,serif" font-size="14.00"> &#160;&#160;&#160;&#160;&#160;&#160;ser_id &#160;</text>
<text xml:space="preserve" text-anchor="start" x="324.98" y="-283.95" font-family="Times New Roman,serif" font-size="14.00"> &#160;&#160;&#160;&#160;&#160;&#160;year &#160;</text>
<text xml:space="preserve" text-anchor="start" x="330.23" y="-267.45" font-family="Times New Roman,serif" font-size="14.00"> &#160;&#160;&#160;&#160;&#160;&#160;&#160;&#160;... &#160;&#160;</text>
</g>
<!-- ann&#45;&gt;ts -->
<g id="edge3" class="edge">
<title>ann&#45;&gt;ts</title>
<path fill="none" stroke="black" d="M426.07,-254.88C461,-221.01 508.15,-175.31 542.95,-141.58"/>
<polygon fill="black" stroke="black" points="545.24,-144.23 549.98,-134.76 540.37,-139.21 545.24,-144.23"/>
<text xml:space="preserve" text-anchor="middle" x="480.16" y="-210.7" font-family="Times New Roman,serif" font-size="14.00">n:1</text>
</g>
<!-- grouptrait -->
<g id="node6" class="node">
<title>grouptrait</title>
<polygon fill="gray" stroke="black" points="268.23,-723.5 268.23,-834 384.23,-834 384.23,-723.5 268.23,-723.5"/>
<polygon fill="none" stroke="black" points="276.23,-803.5 276.23,-830 376.23,-830 376.23,-803.5 276.23,-803.5"/>
<text xml:space="preserve" text-anchor="start" x="281.23" y="-812.7" font-family="Times New Roman,serif" font-size="14.00"> </text>
<text xml:space="preserve" text-anchor="start" x="284.98" y="-812.7" font-family="Times New Roman,serif" font-weight="bold" font-size="14.00">dat.grouptrait</text>
<text xml:space="preserve" text-anchor="start" x="367.48" y="-812.7" font-family="Times New Roman,serif" font-size="14.00"> </text>
<polygon fill="none" stroke="black" points="276.23,-727.5 276.23,-803.5 376.23,-803.5 376.23,-727.5 276.23,-727.5"/>
<text xml:space="preserve" text-anchor="start" x="281.23" y="-785.2" font-family="Times New Roman,serif" font-size="14.00"> &#160;&#160;&#160;&#160;&#160;&#160;ser_id &#160;</text>
<text xml:space="preserve" text-anchor="start" x="281.23" y="-768.7" font-family="Times New Roman,serif" font-size="14.00"> &#160;&#160;&#160;&#160;&#160;&#160;year &#160;&#160;</text>
<text xml:space="preserve" text-anchor="start" x="281.23" y="-752.2" font-family="Times New Roman,serif" font-size="14.00"> &#160;&#160;&#160;&#160;&#160;&#160;mean size </text>
<text xml:space="preserve" text-anchor="start" x="302.98" y="-735.7" font-family="Times New Roman,serif" font-size="14.00"> &#160;&#160;&#160;&#160;&#160;&#160;... </text>
</g>
<!-- group -->
<g id="node7" class="node">
<title>group</title>
<polygon fill="gray" stroke="black" points="94.48,-381 94.48,-491.5 187.98,-491.5 187.98,-381 94.48,-381"/>
<polygon fill="none" stroke="black" points="102.48,-461 102.48,-487.5 179.98,-487.5 179.98,-461 102.48,-461"/>
<text xml:space="preserve" text-anchor="start" x="108.98" y="-470.2" font-family="Times New Roman,serif" font-size="14.00"> </text>
<text xml:space="preserve" text-anchor="start" x="112.73" y="-470.2" font-family="Times New Roman,serif" font-weight="bold" font-size="14.00">dat.group</text>
<text xml:space="preserve" text-anchor="start" x="169.73" y="-470.2" font-family="Times New Roman,serif" font-size="14.00"> </text>
<polygon fill="none" stroke="black" points="102.48,-385 102.48,-461 179.98,-461 179.98,-385 102.48,-385"/>
<text xml:space="preserve" text-anchor="start" x="107.48" y="-442.7" font-family="Times New Roman,serif" font-size="14.00"> &#160;&#160;&#160;&#160;&#160;&#160;ser_id &#160;</text>
<text xml:space="preserve" text-anchor="start" x="107.48" y="-426.2" font-family="Times New Roman,serif" font-size="14.00"> &#160;&#160;&#160;&#160;&#160;&#160;gr_id &#160;&#160;</text>
<text xml:space="preserve" text-anchor="start" x="107.48" y="-409.7" font-family="Times New Roman,serif" font-size="14.00"> &#160;&#160;&#160;&#160;&#160;&#160;year &#160;&#160;</text>
<text xml:space="preserve" text-anchor="start" x="107.48" y="-393.2" font-family="Times New Roman,serif" font-size="14.00"> &#160;&#160;&#160;&#160;&#160;&#160;&#160;&#160;&#160;&#160;&#160;&#160;&#160;... </text>
</g>
<!-- grouptrait&#45;&gt;group -->
<g id="edge4" class="edge">
<title>grouptrait&#45;&gt;group</title>
<path fill="none" stroke="black" d="M267.75,-772.7C196.62,-763.06 79.35,-735.15 25.23,-654.5 -10.56,-601.17 -5.86,-566.2 25.23,-510 37.95,-487 61.32,-470.3 83.77,-458.74"/>
<polygon fill="black" stroke="black" points="85.14,-461.97 92.61,-454.45 82.09,-455.67 85.14,-461.97"/>
<text xml:space="preserve" text-anchor="middle" x="61.85" y="-675.7" font-family="Times New Roman,serif" font-size="14.00">n:1</text>
</g>
<!-- trait -->
<g id="node10" class="node">
<title>trait</title>
<polygon fill="gray" stroke="black" points="510.6,-543.5 510.6,-621 739.85,-621 739.85,-543.5 510.6,-543.5"/>
<polygon fill="none" stroke="black" points="518.6,-590.5 518.6,-617 731.85,-617 731.85,-590.5 518.6,-590.5"/>
<text xml:space="preserve" text-anchor="start" x="598.6" y="-599.7" font-family="Times New Roman,serif" font-size="14.00"> </text>
<text xml:space="preserve" text-anchor="start" x="602.35" y="-599.7" font-family="Times New Roman,serif" font-weight="bold" font-size="14.00">ref.trait</text>
<text xml:space="preserve" text-anchor="start" x="648.1" y="-599.7" font-family="Times New Roman,serif" font-size="14.00"> </text>
<polygon fill="none" stroke="black" points="518.6,-547.5 518.6,-590.5 731.85,-590.5 731.85,-547.5 518.6,-547.5"/>
<text xml:space="preserve" text-anchor="start" x="523.6" y="-572.2" font-family="Times New Roman,serif" font-size="14.00"> &#160;&#160;&#160;&#160;&#160;&#160;&#160;&#160;&#160;&#160;&#160;metric_id (length, weight..) &#160;</text>
<text xml:space="preserve" text-anchor="start" x="610.23" y="-555.7" font-family="Times New Roman,serif" font-size="14.00"> &#160;&#160;&#160;&#160;&#160;&#160;&#160;</text>
</g>
<!-- grouptrait&#45;&gt;trait -->
<g id="edge11" class="edge">
<title>grouptrait&#45;&gt;trait</title>
<path fill="none" stroke="black" d="M374.07,-723.04C380.23,-717.29 386.68,-711.8 393.23,-707 436.27,-675.45 454.06,-679.48 501.23,-654.5 517.4,-645.94 534.54,-636.4 550.74,-627.16"/>
<polygon fill="black" stroke="black" points="552.45,-630.21 559.38,-622.2 548.97,-624.14 552.45,-630.21"/>
<text xml:space="preserve" text-anchor="middle" x="467.78" y="-675.7" font-family="Times New Roman,serif" font-size="14.00">n:1</text>
</g>
<!-- traitmethod -->
<g id="node13" class="node">
<title>traitmethod</title>
<polygon fill="gray" stroke="black" points="159.85,-543.5 159.85,-621 492.6,-621 492.6,-543.5 159.85,-543.5"/>
<polygon fill="none" stroke="black" points="167.85,-590.5 167.85,-617 484.6,-617 484.6,-590.5 167.85,-590.5"/>
<text xml:space="preserve" text-anchor="start" x="277.48" y="-599.7" font-family="Times New Roman,serif" font-size="14.00"> </text>
<text xml:space="preserve" text-anchor="start" x="281.23" y="-599.7" font-family="Times New Roman,serif" font-weight="bold" font-size="14.00">ref.traitmethod</text>
<text xml:space="preserve" text-anchor="start" x="371.23" y="-599.7" font-family="Times New Roman,serif" font-size="14.00"> </text>
<polygon fill="none" stroke="black" points="167.85,-547.5 167.85,-590.5 484.6,-590.5 484.6,-547.5 167.85,-547.5"/>
<text xml:space="preserve" text-anchor="start" x="172.85" y="-572.2" font-family="Times New Roman,serif" font-size="14.00"> &#160;&#160;&#160;&#160;&#160;&#160;&#160;&#160;&#160;&#160;&#160;Sex (Gonadal inspection), Sex (length based).. &#160;</text>
<text xml:space="preserve" text-anchor="start" x="311.23" y="-555.7" font-family="Times New Roman,serif" font-size="14.00"> &#160;&#160;&#160;&#160;&#160;&#160;&#160;</text>
</g>
<!-- grouptrait&#45;&gt;traitmethod -->
<g id="edge13" class="edge">
<title>grouptrait&#45;&gt;traitmethod</title>
<path fill="none" stroke="black" d="M326.23,-723.05C326.23,-694.64 326.23,-660.19 326.23,-632.6"/>
<polygon fill="black" stroke="black" points="329.73,-632.74 326.23,-622.74 322.73,-632.74 329.73,-632.74"/>
<text xml:space="preserve" text-anchor="middle" x="334.85" y="-675.7" font-family="Times New Roman,serif" font-size="14.00">n:1</text>
</g>
<!-- traitqalvalue -->
<g id="node14" class="node">
<title>traitqalvalue</title>
<polygon fill="gray" stroke="black" points="757.85,-543.5 757.85,-621 1036.6,-621 1036.6,-543.5 757.85,-543.5"/>
<polygon fill="none" stroke="black" points="765.85,-590.5 765.85,-617 1028.6,-617 1028.6,-590.5 765.85,-590.5"/>
<text xml:space="preserve" text-anchor="start" x="846.23" y="-599.7" font-family="Times New Roman,serif" font-size="14.00"> </text>
<text xml:space="preserve" text-anchor="start" x="849.98" y="-599.7" font-family="Times New Roman,serif" font-weight="bold" font-size="14.00">ref.traitqalvalue</text>
<text xml:space="preserve" text-anchor="start" x="944.48" y="-599.7" font-family="Times New Roman,serif" font-size="14.00"> </text>
<polygon fill="none" stroke="black" points="765.85,-547.5 765.85,-590.5 1028.6,-590.5 1028.6,-547.5 765.85,-547.5"/>
<text xml:space="preserve" text-anchor="start" x="770.85" y="-572.2" font-family="Times New Roman,serif" font-size="14.00"> &#160;&#160;&#160;&#160;&#160;&#160;&#160;&#160;&#160;&#160;&#160;traitqalcode (pigment stage, sex..) &#160;</text>
<text xml:space="preserve" text-anchor="start" x="770.85" y="-555.7" font-family="Times New Roman,serif" font-size="14.00"> &#160;&#160;&#160;&#160;&#160;&#160;qalValue (VB, M(male), F(female)) &#160;&#160;&#160;&#160;&#160;&#160;&#160;</text>
</g>
<!-- grouptrait&#45;&gt;traitqalvalue -->
<g id="edge12" class="edge">
<title>grouptrait&#45;&gt;traitqalvalue</title>
<path fill="none" stroke="black" d="M369.3,-723.02C376.61,-716.66 384.64,-711.01 393.23,-707 451.51,-679.74 620.04,-705.52 682.23,-689 732.92,-675.53 785.84,-649.67 826.49,-626.9"/>
<polygon fill="black" stroke="black" points="828.01,-630.06 834.97,-622.08 824.55,-623.98 828.01,-630.06"/>
<text xml:space="preserve" text-anchor="middle" x="734.28" y="-675.7" font-family="Times New Roman,serif" font-size="14.00">n:1</text>
</g>
<!-- anneel -->
<g id="node17" class="node">
<title>anneel</title>
<polygon fill="pink" stroke="black" points="34.48,-564.25 34.48,-600.25 141.98,-600.25 141.98,-564.25 34.48,-564.25"/>
<text xml:space="preserve" text-anchor="middle" x="88.23" y="-577.2" font-family="Times New Roman,serif" font-size="14.00">dat.annual&#45;series</text>
</g>
<!-- grouptrait&#45;&gt;anneel -->
<g id="edge14" class="edge">
<title>grouptrait&#45;&gt;anneel</title>
<path fill="none" stroke="black" stroke-dasharray="5,2" d="M267.95,-742C232.54,-719.02 187.35,-687.4 151.23,-654.5 136,-640.64 120.67,-623.38 108.93,-609.32"/>
<polygon fill="black" stroke="black" points="111.79,-607.28 102.74,-601.78 106.38,-611.73 111.79,-607.28"/>
<text xml:space="preserve" text-anchor="middle" x="253.61" y="-675.7" font-family="Times New Roman,serif" font-size="14.00">implicit (year &#45; ser_id)</text>
</g>
<!-- group&#45;&gt;ts -->
<g id="edge5" class="edge">
<title>group&#45;&gt;ts</title>
<path fill="none" stroke="black" d="M188.28,-383.82C189.91,-382.66 191.56,-381.55 193.23,-380.5 215.36,-366.59 230.88,-381.12 249.23,-362.5 288.52,-322.61 249.51,-284.48 285.98,-242 350.97,-166.28 464.11,-126.59 532.59,-108.49"/>
<polygon fill="black" stroke="black" points="533.31,-111.92 542.13,-106.05 531.57,-105.14 533.31,-111.92"/>
<text xml:space="preserve" text-anchor="middle" x="294.6" y="-297.2" font-family="Times New Roman,serif" font-size="14.00">n:1</text>
</g>
<!-- fish -->
<g id="node8" class="node">
<title>fish</title>
<polygon fill="gray" stroke="black" points="1107.85,-510.5 1107.85,-654 1200.6,-654 1200.6,-510.5 1107.85,-510.5"/>
<polygon fill="none" stroke="black" points="1115.85,-623.5 1115.85,-650 1192.6,-650 1192.6,-623.5 1115.85,-623.5"/>
<text xml:space="preserve" text-anchor="start" x="1128.73" y="-632.7" font-family="Times New Roman,serif" font-size="14.00"> </text>
<text xml:space="preserve" text-anchor="start" x="1132.48" y="-632.7" font-family="Times New Roman,serif" font-weight="bold" font-size="14.00">dat.fish</text>
<text xml:space="preserve" text-anchor="start" x="1175.98" y="-632.7" font-family="Times New Roman,serif" font-size="14.00"> </text>
<polygon fill="none" stroke="black" points="1115.85,-514.5 1115.85,-623.5 1192.6,-623.5 1192.6,-514.5 1115.85,-514.5"/>
<text xml:space="preserve" text-anchor="start" x="1120.85" y="-605.2" font-family="Times New Roman,serif" font-size="14.00"> &#160;&#160;&#160;&#160;&#160;&#160;ser_id &#160;</text>
<text xml:space="preserve" text-anchor="start" x="1120.85" y="-588.7" font-family="Times New Roman,serif" font-size="14.00"> &#160;&#160;&#160;&#160;&#160;&#160;fi_id &#160;&#160;</text>
<text xml:space="preserve" text-anchor="start" x="1120.85" y="-572.2" font-family="Times New Roman,serif" font-size="14.00"> &#160;&#160;&#160;&#160;&#160;&#160;x &#160;&#160;</text>
<text xml:space="preserve" text-anchor="start" x="1120.85" y="-555.7" font-family="Times New Roman,serif" font-size="14.00"> &#160;&#160;&#160;&#160;&#160;&#160;y &#160;&#160;</text>
<text xml:space="preserve" text-anchor="start" x="1120.85" y="-539.2" font-family="Times New Roman,serif" font-size="14.00"> &#160;&#160;&#160;&#160;&#160;&#160;date </text>
<text xml:space="preserve" text-anchor="start" x="1133.6" y="-522.7" font-family="Times New Roman,serif" font-size="14.00"> &#160;&#160;&#160;&#160;&#160;&#160;... </text>
</g>
<!-- fish&#45;&gt;ts -->
<g id="edge7" class="edge">
<title>fish&#45;&gt;ts</title>
<path fill="none" stroke="black" d="M1157.83,-510.18C1160.71,-422.85 1159.89,-281.4 1127.23,-242 1065.71,-167.79 773.89,-120.42 648.12,-103.13"/>
<polygon fill="black" stroke="black" points="648.72,-99.68 638.34,-101.8 647.78,-106.61 648.72,-99.68"/>
<text xml:space="preserve" text-anchor="middle" x="1164.69" y="-297.2" font-family="Times New Roman,serif" font-size="14.00">n:1</text>
</g>
<!-- indtrait -->
<g id="node9" class="node">
<title>indtrait</title>
<polygon fill="gray" stroke="black" points="839.23,-723.5 839.23,-834 997.23,-834 997.23,-723.5 839.23,-723.5"/>
<polygon fill="none" stroke="black" points="847.23,-803.5 847.23,-830 989.23,-830 989.23,-803.5 847.23,-803.5"/>
<text xml:space="preserve" text-anchor="start" x="852.23" y="-812.7" font-family="Times New Roman,serif" font-size="14.00"> </text>
<text xml:space="preserve" text-anchor="start" x="855.98" y="-812.7" font-family="Times New Roman,serif" font-weight="bold" font-size="14.00">dat.individualmetrics</text>
<text xml:space="preserve" text-anchor="start" x="980.48" y="-812.7" font-family="Times New Roman,serif" font-size="14.00"> </text>
<polygon fill="none" stroke="black" points="847.23,-727.5 847.23,-803.5 989.23,-803.5 989.23,-727.5 847.23,-727.5"/>
<text xml:space="preserve" text-anchor="start" x="852.23" y="-785.2" font-family="Times New Roman,serif" font-size="14.00"> &#160;&#160;&#160;&#160;&#160;&#160;fi_id &#160;</text>
<text xml:space="preserve" text-anchor="start" x="852.23" y="-768.7" font-family="Times New Roman,serif" font-size="14.00"> &#160;&#160;&#160;&#160;&#160;&#160;metric_id &#160;</text>
<text xml:space="preserve" text-anchor="start" x="852.23" y="-752.2" font-family="Times New Roman,serif" font-size="14.00"> &#160;&#160;&#160;&#160;&#160;&#160;value &#160;</text>
<text xml:space="preserve" text-anchor="start" x="893.48" y="-735.7" font-family="Times New Roman,serif" font-size="14.00"> </text>
</g>
<!-- indtrait&#45;&gt;fish -->
<g id="edge6" class="edge">
<title>indtrait&#45;&gt;fish</title>
<path fill="none" stroke="black" d="M997.63,-724.65C1035.6,-698.7 1076.39,-669.82 1093.23,-654.5 1095.33,-652.58 1097.44,-650.59 1099.53,-648.55"/>
<polygon fill="black" stroke="black" points="1101.92,-651.12 1106.46,-641.54 1096.94,-646.2 1101.92,-651.12"/>
<text xml:space="preserve" text-anchor="middle" x="1077.93" y="-675.7" font-family="Times New Roman,serif" font-size="14.00">n:1</text>
</g>
<!-- indtrait&#45;&gt;trait -->
<g id="edge8" class="edge">
<title>indtrait&#45;&gt;trait</title>
<path fill="none" stroke="black" d="M861.03,-723.14C840.66,-705.5 816.89,-686.82 793.23,-672.5 775.15,-661.56 768.21,-663.78 749.23,-654.5 732.17,-646.16 714.23,-636.44 697.47,-626.91"/>
<polygon fill="black" stroke="black" points="699.48,-624.03 689.06,-622.09 695.99,-630.1 699.48,-624.03"/>
<text xml:space="preserve" text-anchor="middle" x="824.14" y="-675.7" font-family="Times New Roman,serif" font-size="14.00">n:1</text>
</g>
<!-- indtrait&#45;&gt;traitmethod -->
<g id="edge10" class="edge">
<title>indtrait&#45;&gt;traitmethod</title>
<path fill="none" stroke="black" d="M838.73,-750.69C796.38,-736.74 743.26,-719.98 695.23,-707 659.94,-697.46 649.04,-702.25 614.98,-689 601.24,-683.66 599.99,-677.76 586.23,-672.5 550.15,-658.72 538.14,-665.83 501.23,-654.5 474.9,-646.42 447.03,-635.99 421.45,-625.6"/>
<polygon fill="black" stroke="black" points="423,-622.45 412.42,-621.89 420.34,-628.93 423,-622.45"/>
<text xml:space="preserve" text-anchor="middle" x="623.6" y="-675.7" font-family="Times New Roman,serif" font-size="14.00">n:1</text>
</g>
<!-- indtrait&#45;&gt;traitqalvalue -->
<g id="edge9" class="edge">
<title>indtrait&#45;&gt;traitqalvalue</title>
<path fill="none" stroke="black" d="M912.32,-723.05C909.25,-694.64 905.53,-660.19 902.55,-632.6"/>
<polygon fill="black" stroke="black" points="906.04,-632.3 901.49,-622.74 899.08,-633.05 906.04,-632.3"/>
<text xml:space="preserve" text-anchor="middle" x="916.98" y="-675.7" font-family="Times New Roman,serif" font-size="14.00">n:1</text>
</g>
<!-- traitqal -->
<g id="node11" class="node">
<title>traitqal</title>
<polygon fill="gray" stroke="black" points="860.35,-263.5 860.35,-341 1118.1,-341 1118.1,-263.5 860.35,-263.5"/>
<polygon fill="none" stroke="black" points="868.35,-310.5 868.35,-337 1110.1,-337 1110.1,-310.5 868.35,-310.5"/>
<text xml:space="preserve" text-anchor="start" x="928.48" y="-319.7" font-family="Times New Roman,serif" font-size="14.00"> </text>
<text xml:space="preserve" text-anchor="start" x="932.23" y="-319.7" font-family="Times New Roman,serif" font-weight="bold" font-size="14.00">ref.trait_qualitative</text>
<text xml:space="preserve" text-anchor="start" x="1046.23" y="-319.7" font-family="Times New Roman,serif" font-size="14.00"> </text>
<polygon fill="none" stroke="black" points="868.35,-267.5 868.35,-310.5 1110.1,-310.5 1110.1,-267.5 868.35,-267.5"/>
<text xml:space="preserve" text-anchor="start" x="873.35" y="-292.2" font-family="Times New Roman,serif" font-size="14.00"> &#160;&#160;&#160;&#160;&#160;&#160;&#160;&#160;&#160;&#160;&#160;trait_code (Sex, Pigment stage..) &#160;</text>
<text xml:space="preserve" text-anchor="start" x="974.23" y="-275.7" font-family="Times New Roman,serif" font-size="14.00"> &#160;&#160;&#160;&#160;&#160;&#160;&#160;</text>
</g>
<!-- trait&#45;&gt;traitqal -->
<g id="edge16" class="edge">
<title>trait&#45;&gt;traitqal</title>
<path fill="none" stroke="black" stroke-dasharray="5,2" d="M673.25,-543.01C724.68,-502.24 808.88,-436.04 882.73,-380.5 896.94,-369.81 912.35,-358.48 926.93,-347.89"/>
<polygon fill="black" stroke="black" points="928.61,-350.99 934.65,-342.29 924.5,-345.32 928.61,-350.99"/>
<text xml:space="preserve" text-anchor="middle" x="902.98" y="-431.2" font-family="Times New Roman,serif" font-size="14.00">inherits</text>
</g>
<!-- traitnum -->
<g id="node12" class="node">
<title>traitnum</title>
<polygon fill="gray" stroke="black" points="462.48,-263.5 462.48,-341 741.98,-341 741.98,-263.5 462.48,-263.5"/>
<polygon fill="none" stroke="black" points="470.48,-310.5 470.48,-337 733.98,-337 733.98,-310.5 470.48,-310.5"/>
<text xml:space="preserve" text-anchor="start" x="547.85" y="-319.7" font-family="Times New Roman,serif" font-size="14.00"> </text>
<text xml:space="preserve" text-anchor="start" x="551.6" y="-319.7" font-family="Times New Roman,serif" font-weight="bold" font-size="14.00">ref.trait_numeric</text>
<text xml:space="preserve" text-anchor="start" x="652.85" y="-319.7" font-family="Times New Roman,serif" font-size="14.00"> </text>
<polygon fill="none" stroke="black" points="470.48,-267.5 470.48,-310.5 733.98,-310.5 733.98,-267.5 470.48,-267.5"/>
<text xml:space="preserve" text-anchor="start" x="475.48" y="-292.2" font-family="Times New Roman,serif" font-size="14.00"> &#160;&#160;&#160;&#160;&#160;&#160;&#160;&#160;&#160;&#160;&#160;trait_code (Length_mm, Weight_g..) &#160;</text>
<text xml:space="preserve" text-anchor="start" x="587.23" y="-275.7" font-family="Times New Roman,serif" font-size="14.00"> &#160;&#160;&#160;&#160;&#160;&#160;&#160;</text>
</g>
<!-- trait&#45;&gt;traitnum -->
<g id="edge15" class="edge">
<title>trait&#45;&gt;traitnum</title>
<path fill="none" stroke="black" stroke-dasharray="5,2" d="M622.08,-543.18C617.98,-493.72 610.83,-407.27 606.32,-352.76"/>
<polygon fill="black" stroke="black" points="609.81,-352.49 605.5,-342.82 602.84,-353.07 609.81,-352.49"/>
<text xml:space="preserve" text-anchor="middle" x="638.04" y="-431.2" font-family="Times New Roman,serif" font-size="14.00">inherits</text>
</g>
<!-- traitqalvalue&#45;&gt;traitqal -->
<g id="edge17" class="edge">
<title>traitqalvalue&#45;&gt;traitqal</title>
<path fill="none" stroke="black" d="M909.83,-543.18C926.26,-493.51 955.04,-406.55 973.07,-352.08"/>
<polygon fill="black" stroke="black" points="976.34,-353.34 976.16,-342.74 969.69,-351.14 976.34,-353.34"/>
<text xml:space="preserve" text-anchor="middle" x="970.67" y="-431.2" font-family="Times New Roman,serif" font-size="14.00">n:1</text>
</g>
<!-- tseel -->
<g id="node15" class="node">
<title>tseel</title>
<polygon fill="pink" stroke="black" points="842.6,-320.25 759.85,-320.25 759.85,-284.25 842.6,-284.25 842.6,-320.25"/>
<text xml:space="preserve" text-anchor="middle" x="801.23" y="-297.2" font-family="Times New Roman,serif" font-size="14.00">dateel.series</text>
</g>
<!-- tseel&#45;&gt;ts -->
<g id="edge30" class="edge">
<title>tseel&#45;&gt;ts</title>
<path fill="none" stroke="black" stroke-dasharray="5,2" d="M787.58,-283.87C777.84,-271.78 764.21,-255.47 751.23,-242 717.06,-206.56 675.95,-169.3 643.82,-141.25"/>
<polygon fill="black" stroke="black" points="646.42,-138.87 636.57,-134.95 641.82,-144.16 646.42,-138.87"/>
<text xml:space="preserve" text-anchor="middle" x="750.66" y="-210.7" font-family="Times New Roman,serif" font-size="14.00">inherits</text>
</g>
<!-- mettseel -->
<g id="node16" class="node">
<title>mettseel</title>
<polygon fill="pink" stroke="black" points="1398.6,-939.5 1395.6,-943.5 1374.6,-943.5 1371.6,-939.5 1261.85,-939.5 1261.85,-903.5 1398.6,-903.5 1398.6,-939.5"/>
<text xml:space="preserve" text-anchor="middle" x="1330.23" y="-916.45" font-family="Times New Roman,serif" font-size="14.00">dateel.metadata&#45;series</text>
</g>
<!-- mettseel&#45;&gt;metts -->
<g id="edge32" class="edge">
<title>mettseel&#45;&gt;metts</title>
<path fill="none" stroke="black" stroke-dasharray="5,2" d="M1330.23,-903.24C1330.23,-892.49 1330.23,-877.79 1330.23,-862.27"/>
<polygon fill="black" stroke="black" points="1333.73,-862.39 1330.23,-852.39 1326.73,-862.39 1333.73,-862.39"/>
<text xml:space="preserve" text-anchor="middle" x="1350.48" y="-871.7" font-family="Times New Roman,serif" font-size="14.00">inherits</text>
</g>
<!-- anneel&#45;&gt;ann -->
<g id="edge29" class="edge">
<title>anneel&#45;&gt;ann</title>
<path fill="none" stroke="black" stroke-dasharray="5,2" d="M99.89,-563.88C111.34,-547.98 130.11,-524.75 151.23,-510 169.22,-497.43 178.98,-504.21 197.23,-492 251.89,-455.42 302.65,-399.8 336.42,-358.4"/>
<polygon fill="black" stroke="black" points="339.07,-360.69 342.62,-350.71 333.62,-356.29 339.07,-360.69"/>
<text xml:space="preserve" text-anchor="middle" x="336.01" y="-431.2" font-family="Times New Roman,serif" font-size="14.00">inherits</text>
</g>
<!-- anneel&#45;&gt;tseel -->
<g id="edge19" class="edge">
<title>anneel&#45;&gt;tseel</title>
<path fill="none" stroke="black" d="M98,-564.03C108.68,-547.05 127.48,-521.95 151.23,-510 234.5,-468.08 270.39,-516.92 360.23,-492 468.83,-461.87 479.74,-411.92 587.98,-380.5 658.08,-360.15 686.81,-396.84 751.23,-362.5 765.19,-355.05 776.87,-341.95 785.43,-329.96"/>
<polygon fill="black" stroke="black" points="788.12,-332.23 790.76,-321.96 782.3,-328.34 788.12,-332.23"/>
<text xml:space="preserve" text-anchor="middle" x="596.6" y="-431.2" font-family="Times New Roman,serif" font-size="14.00">n:1</text>
</g>
<!-- grouptraiteel -->
<g id="node18" class="node">
<title>grouptraiteel</title>
<polygon fill="pink" stroke="black" points="353.6,-903.5 353.6,-939.5 458.85,-939.5 458.85,-903.5 353.6,-903.5"/>
<text xml:space="preserve" text-anchor="middle" x="406.23" y="-916.45" font-family="Times New Roman,serif" font-size="14.00">dateel.grouptrait</text>
</g>
<!-- grouptraiteel&#45;&gt;grouptrait -->
<g id="edge24" class="edge">
<title>grouptraiteel&#45;&gt;grouptrait</title>
<path fill="none" stroke="black" stroke-dasharray="5,2" d="M386.33,-903.29C380.8,-897.83 375.11,-891.51 370.73,-885 362.42,-872.67 355.17,-858.55 349.06,-844.74"/>
<polygon fill="black" stroke="black" points="352.34,-843.5 345.21,-835.66 345.9,-846.23 352.34,-843.5"/>
<text xml:space="preserve" text-anchor="middle" x="390.98" y="-871.7" font-family="Times New Roman,serif" font-size="14.00">inherits</text>
</g>
<!-- metanneel -->
<g id="node26" class="node">
<title>metanneel</title>
<polygon fill="gray" stroke="black" points="402.1,-760.75 402.1,-796.75 474.35,-796.75 474.35,-760.75 402.1,-760.75"/>
<text xml:space="preserve" text-anchor="middle" x="438.23" y="-773.7" font-family="Times New Roman,serif" font-size="14.00">metanneel</text>
</g>
<!-- grouptraiteel&#45;&gt;metanneel -->
<g id="edge18" class="edge">
<title>grouptraiteel&#45;&gt;metanneel</title>
<path fill="none" stroke="black" d="M410.15,-903.24C415.55,-879.5 425.33,-836.47 431.8,-808"/>
<polygon fill="black" stroke="black" points="435.13,-809.15 433.93,-798.63 428.3,-807.6 435.13,-809.15"/>
<text xml:space="preserve" text-anchor="middle" x="426.11" y="-871.7" font-family="Times New Roman,serif" font-size="14.00">n:1</text>
</g>
<!-- indtraiteel -->
<g id="node19" class="node">
<title>indtraiteel</title>
<polygon fill="pink" stroke="black" points="918.73,-903.5 918.73,-939.5 1009.73,-939.5 1009.73,-903.5 918.73,-903.5"/>
<text xml:space="preserve" text-anchor="middle" x="964.23" y="-916.45" font-family="Times New Roman,serif" font-size="14.00">dateel.indtrait</text>
</g>
<!-- indtraiteel&#45;&gt;indtrait -->
<g id="edge25" class="edge">
<title>indtraiteel&#45;&gt;indtrait</title>
<path fill="none" stroke="black" stroke-dasharray="5,2" d="M952.14,-903.02C948.71,-897.45 945.23,-891.14 942.73,-885 937.64,-872.51 933.48,-858.74 930.13,-845.39"/>
<polygon fill="black" stroke="black" points="933.56,-844.7 927.84,-835.78 926.75,-846.32 933.56,-844.7"/>
<text xml:space="preserve" text-anchor="middle" x="962.98" y="-871.7" font-family="Times New Roman,serif" font-size="14.00">inherits</text>
</g>
<!-- fisheel -->
<g id="node20" class="node">
<title>fisheel</title>
<polygon fill="pink" stroke="black" points="1036.1,-760.75 1036.1,-796.75 1108.35,-796.75 1108.35,-760.75 1036.1,-760.75"/>
<text xml:space="preserve" text-anchor="middle" x="1072.23" y="-773.7" font-family="Times New Roman,serif" font-size="14.00">dateel.fish</text>
</g>
<!-- indtraiteel&#45;&gt;fisheel -->
<g id="edge20" class="edge">
<title>indtraiteel&#45;&gt;fisheel</title>
<path fill="none" stroke="black" d="M1010.21,-909.88C1024.21,-904.55 1038.46,-896.65 1048.23,-885 1066.08,-863.69 1071.3,-831.74 1072.54,-808.63"/>
<polygon fill="black" stroke="black" points="1076.04,-808.75 1072.82,-798.66 1069.04,-808.55 1076.04,-808.75"/>
<text xml:space="preserve" text-anchor="middle" x="1066.4" y="-871.7" font-family="Times New Roman,serif" font-size="14.00">n:1</text>
</g>
<!-- fisheel&#45;&gt;fish -->
<g id="edge27" class="edge">
<title>fisheel&#45;&gt;fish</title>
<path fill="none" stroke="black" stroke-dasharray="5,2" d="M1079.5,-760.49C1088.6,-738.91 1104.8,-700.48 1119.8,-664.9"/>
<polygon fill="black" stroke="black" points="1122.95,-666.44 1123.61,-655.86 1116.5,-663.72 1122.95,-666.44"/>
<text xml:space="preserve" text-anchor="middle" x="1135.93" y="-675.7" font-family="Times New Roman,serif" font-size="14.00">inherits</text>
</g>
<!-- fisheel&#45;&gt;tseel -->
<g id="edge21" class="edge">
<title>fisheel&#45;&gt;tseel</title>
<path fill="none" stroke="black" d="M1074.09,-760.52C1078.09,-716.54 1084.26,-597.46 1045.23,-510 1013.49,-438.89 994.32,-420.01 927.23,-380.5 897.31,-362.89 880.8,-380.68 851.23,-362.5 838.06,-354.4 826.64,-341.65 818.06,-330.04"/>
<polygon fill="black" stroke="black" points="820.99,-328.13 812.4,-321.93 815.25,-332.14 820.99,-328.13"/>
<text xml:space="preserve" text-anchor="middle" x="1084.41" y="-577.2" font-family="Times New Roman,serif" font-size="14.00">n:1</text>
</g>
<!-- traiteel -->
<g id="node21" class="node">
<title>traiteel</title>
<polygon fill="pink" stroke="black" points="507.35,-760.75 507.35,-796.75 581.1,-796.75 581.1,-760.75 507.35,-760.75"/>
<text xml:space="preserve" text-anchor="middle" x="544.23" y="-773.7" font-family="Times New Roman,serif" font-size="14.00">dateel.trait</text>
</g>
<!-- traiteel&#45;&gt;trait -->
<g id="edge33" class="edge">
<title>traiteel&#45;&gt;trait</title>
<path fill="none" stroke="black" stroke-dasharray="5,2" d="M540.87,-760.28C537.53,-738.8 534.4,-701.62 545.73,-672.5 551.78,-656.94 561.87,-642.35 572.88,-629.65"/>
<polygon fill="black" stroke="black" points="575.43,-632.05 579.58,-622.3 570.26,-627.33 575.43,-632.05"/>
<text xml:space="preserve" text-anchor="middle" x="565.98" y="-675.7" font-family="Times New Roman,serif" font-size="14.00">inherits</text>
</g>
<!-- tsnas -->
<g id="node22" class="node">
<title>tsnas</title>
<polygon fill="limegreen" stroke="black" points="1276.73,-320.25 1191.73,-320.25 1191.73,-284.25 1276.73,-284.25 1276.73,-320.25"/>
<text xml:space="preserve" text-anchor="middle" x="1234.23" y="-297.2" font-family="Times New Roman,serif" font-size="14.00">datnas.series</text>
</g>
<!-- tsnas&#45;&gt;ts -->
<g id="edge31" class="edge">
<title>tsnas&#45;&gt;ts</title>
<path fill="none" stroke="black" stroke-dasharray="5,2" d="M1227.03,-283.97C1217.12,-262.44 1197.14,-226.2 1168.23,-207.5 1082.22,-151.86 776.53,-114.84 647.91,-101.39"/>
<polygon fill="black" stroke="black" points="648.57,-97.94 638.27,-100.4 647.85,-104.91 648.57,-97.94"/>
<text xml:space="preserve" text-anchor="middle" x="1207.49" y="-210.7" font-family="Times New Roman,serif" font-size="14.00">inherits</text>
</g>
<!-- indtraitnas -->
<g id="node23" class="node">
<title>indtraitnas</title>
<polygon fill="limegreen" stroke="black" points="1049.6,-903.5 1049.6,-939.5 1142.85,-939.5 1142.85,-903.5 1049.6,-903.5"/>
<text xml:space="preserve" text-anchor="middle" x="1096.23" y="-916.45" font-family="Times New Roman,serif" font-size="14.00">datnas.indtrait</text>
</g>
<!-- indtraitnas&#45;&gt;indtrait -->
<g id="edge26" class="edge">
<title>indtraitnas&#45;&gt;indtrait</title>
<path fill="none" stroke="black" stroke-dasharray="5,2" d="M1049.13,-907.76C1033.78,-902.27 1017.23,-894.8 1003.73,-885 987.88,-873.5 973.3,-858.37 960.84,-843.17"/>
<polygon fill="black" stroke="black" points="963.66,-841.09 954.7,-835.43 958.17,-845.44 963.66,-841.09"/>
<text xml:space="preserve" text-anchor="middle" x="1023.98" y="-871.7" font-family="Times New Roman,serif" font-size="14.00">inherits</text>
</g>
<!-- fishnas -->
<g id="node24" class="node">
<title>fishnas</title>
<polygon fill="limegreen" stroke="black" points="1131.98,-760.75 1131.98,-796.75 1206.48,-796.75 1206.48,-760.75 1131.98,-760.75"/>
<text xml:space="preserve" text-anchor="middle" x="1169.23" y="-773.7" font-family="Times New Roman,serif" font-size="14.00">datnas.fish</text>
</g>
<!-- indtraitnas&#45;&gt;fishnas -->
<g id="edge22" class="edge">
<title>indtraitnas&#45;&gt;fishnas</title>
<path fill="none" stroke="black" d="M1105.18,-903.24C1117.6,-879.29 1140.2,-835.71 1154.97,-807.25"/>
<polygon fill="black" stroke="black" points="1158.01,-808.98 1159.5,-798.49 1151.79,-805.76 1158.01,-808.98"/>
<text xml:space="preserve" text-anchor="middle" x="1130.55" y="-871.7" font-family="Times New Roman,serif" font-size="14.00">n:1</text>
</g>
<!-- fishnas&#45;&gt;fish -->
<g id="edge28" class="edge">
<title>fishnas&#45;&gt;fish</title>
<path fill="none" stroke="black" stroke-dasharray="5,2" d="M1167.89,-760.49C1166.24,-739.1 1163.32,-701.14 1160.59,-665.82"/>
<polygon fill="black" stroke="black" points="1164.09,-665.68 1159.83,-655.98 1157.11,-666.22 1164.09,-665.68"/>
<text xml:space="preserve" text-anchor="middle" x="1182.43" y="-675.7" font-family="Times New Roman,serif" font-size="14.00">inherits</text>
</g>
<!-- fishnas&#45;&gt;tsnas -->
<g id="edge23" class="edge">
<title>fishnas&#45;&gt;tsnas</title>
<path fill="none" stroke="black" d="M1178.41,-760.28C1187.15,-742.77 1199.89,-714.78 1206.23,-689 1238.28,-558.52 1237.33,-396.33 1235.39,-331.73"/>
<polygon fill="black" stroke="black" points="1238.9,-331.88 1235.06,-322 1231.9,-332.11 1238.9,-331.88"/>
<text xml:space="preserve" text-anchor="middle" x="1240.33" y="-577.2" font-family="Times New Roman,serif" font-size="14.00">n:1</text>
</g>
<!-- traitnas -->
<g id="node25" class="node">
<title>traitnas</title>
<polygon fill="limegreen" stroke="black" points="610.23,-760.75 610.23,-796.75 686.23,-796.75 686.23,-760.75 610.23,-760.75"/>
<text xml:space="preserve" text-anchor="middle" x="648.23" y="-773.7" font-family="Times New Roman,serif" font-size="14.00">datnas.trait</text>
</g>
<!-- traitnas&#45;&gt;trait -->
<g id="edge34" class="edge">
<title>traitnas&#45;&gt;trait</title>
<path fill="none" stroke="black" stroke-dasharray="5,2" d="M646.18,-760.49C642.83,-732.11 636.02,-674.55 631.07,-632.71"/>
<polygon fill="black" stroke="black" points="634.56,-632.38 629.91,-622.86 627.61,-633.21 634.56,-632.38"/>
<text xml:space="preserve" text-anchor="middle" x="657.67" y="-675.7" font-family="Times New Roman,serif" font-size="14.00">inherits</text>
</g>
</g>
</svg>
