<?xml version="1.0" encoding="UTF-8" standalone="no"?>
<!DOCTYPE svg PUBLIC "-//W3C//DTD SVG 1.1//EN"
 "http://www.w3.org/Graphics/SVG/1.1/DTD/svg11.dtd">
<!-- Generated by graphviz version 14.0.5 (20251129.0259)
 -->
<!-- Title: schema Pages: 1 -->
<svg width="407pt" height="360pt"
 viewBox="0.00 0.00 407.00 360.00" xmlns="http://www.w3.org/2000/svg" xmlns:xlink="http://www.w3.org/1999/xlink">
<g id="graph0" class="graph" transform="scale(0.688419 0.688419) rotate(0) translate(4 518.94)">
<title>schema</title>
<polygon fill="white" stroke="none" points="-4,4 -4,-518.94 587.5,-518.94 587.5,4 -4,4"/>
<!-- ref -->
<g id="node1" class="node">
<title>ref</title>
<path fill="gray" stroke="black" d="M176,-447.88C176,-471.22 136.56,-490.19 88,-490.19 39.44,-490.19 0,-471.22 0,-447.88 0,-447.88 0,-67.06 0,-67.06 0,-43.72 39.44,-24.75 88,-24.75 136.56,-24.75 176,-43.72 176,-67.06 176,-67.06 176,-447.88 176,-447.88"/>
<path fill="none" stroke="black" d="M176,-447.88C176,-424.53 136.56,-405.56 88,-405.56 39.44,-405.56 0,-424.53 0,-447.88"/>
<polygon fill="none" stroke="black" points="8,-396.22 8,-422.72 168,-422.72 168,-396.22 8,-396.22"/>
<text xml:space="preserve" text-anchor="start" x="76" y="-405.42" font-family="Times New Roman,serif" font-size="14.00"> </text>
<text xml:space="preserve" text-anchor="start" x="79.75" y="-405.42" font-family="Times New Roman,serif" font-weight="bold" font-size="14.00">ref</text>
<text xml:space="preserve" text-anchor="start" x="96.25" y="-405.42" font-family="Times New Roman,serif" font-size="14.00"> </text>
<polygon fill="none" stroke="black" points="8,-92.22 8,-396.22 168,-396.22 168,-92.22 8,-92.22"/>
<text xml:space="preserve" text-anchor="start" x="13" y="-378.92" font-family="Times New Roman,serif" font-size="14.00">&quot;ref&quot;.tr_lifestage_lfs </text>
<text xml:space="preserve" text-anchor="start" x="13" y="-364.92" font-family="Times New Roman,serif" font-size="14.00">&quot;ref&quot;.tr_maturity_mat </text>
<text xml:space="preserve" text-anchor="start" x="13" y="-350.92" font-family="Times New Roman,serif" font-size="14.00">&quot;ref&quot;.tr_metric_mtr </text>
<text xml:space="preserve" text-anchor="start" x="13" y="-336.92" font-family="Times New Roman,serif" font-size="14.00">&quot;ref&quot;.tr_missvalueqal_mis </text>
<text xml:space="preserve" text-anchor="start" x="13" y="-322.92" font-family="Times New Roman,serif" font-size="14.00">&quot;ref&quot;.tr_monitoring_mon </text>
<text xml:space="preserve" text-anchor="start" x="13" y="-308.92" font-family="Times New Roman,serif" font-size="14.00">&quot;ref&quot;.tr_nimble_nim </text>
<text xml:space="preserve" text-anchor="start" x="13" y="-294.92" font-family="Times New Roman,serif" font-size="14.00" fill="pink">&quot;ref&quot;.tr_objecttype_oty </text>
<text xml:space="preserve" text-anchor="start" x="13" y="-280.92" font-family="Times New Roman,serif" font-size="14.00">&quot;ref&quot;.tr_outcome_oco </text>
<text xml:space="preserve" text-anchor="start" x="13" y="-266.92" font-family="Times New Roman,serif" font-size="14.00">&quot;ref&quot;.tr_quality_qal </text>
<text xml:space="preserve" text-anchor="start" x="13" y="-252.92" font-family="Times New Roman,serif" font-size="14.00">&quot;ref&quot;.tr_rivernames_riv </text>
<text xml:space="preserve" text-anchor="start" x="13" y="-238.92" font-family="Times New Roman,serif" font-size="14.00">&quot;ref&quot;.tr_sex_sex </text>
<text xml:space="preserve" text-anchor="start" x="13" y="-224.92" font-family="Times New Roman,serif" font-size="14.00">&quot;ref&quot;.tr_species_spe </text>
<text xml:space="preserve" text-anchor="start" x="13" y="-210.92" font-family="Times New Roman,serif" font-size="14.00">&quot;ref&quot;.tr_timeperiod_tip </text>
<text xml:space="preserve" text-anchor="start" x="13" y="-196.92" font-family="Times New Roman,serif" font-size="14.00" fill="lightgreen">&quot;ref&quot;.tr_trait_tra </text>
<text xml:space="preserve" text-anchor="start" x="13" y="-182.92" font-family="Times New Roman,serif" font-size="14.00" fill="lightgreen">&quot;ref&quot;.tr_traitmethod_trm </text>
<text xml:space="preserve" text-anchor="start" x="13" y="-168.92" font-family="Times New Roman,serif" font-size="14.00" fill="lightgreen">&quot;ref&quot;.tr_traitnumeric_trn </text>
<text xml:space="preserve" text-anchor="start" x="13" y="-154.92" font-family="Times New Roman,serif" font-size="14.00" fill="lightgreen">&quot;ref&quot;.tr_traitqualitative_trq </text>
<text xml:space="preserve" text-anchor="start" x="13" y="-140.92" font-family="Times New Roman,serif" font-size="14.00" fill="lightgreen">&quot;ref&quot;.tr_traitvaluequal_trv </text>
<text xml:space="preserve" text-anchor="start" x="13" y="-126.92" font-family="Times New Roman,serif" font-size="14.00" fill="lightgreen">&quot;ref&quot;.tr_units_uni </text>
<text xml:space="preserve" text-anchor="start" x="13" y="-112.92" font-family="Times New Roman,serif" font-size="14.00" fill="lightgreen">&quot;ref&quot;.tr_version_ver</text>
<text xml:space="preserve" text-anchor="start" x="122.5" y="-112.92" font-family="Times New Roman,serif" font-size="14.00">... </text>
<text xml:space="preserve" text-anchor="start" x="86.12" y="-98.92" font-family="Times New Roman,serif" font-size="14.00"> </text>
</g>
<!-- refter -->
<g id="node2" class="node">
<title>refter</title>
<path fill="gray" stroke="black" d="M362.25,-375.31C362.25,-389.76 324.49,-401.5 278,-401.5 231.51,-401.5 193.75,-389.76 193.75,-375.31 193.75,-375.31 193.75,-139.62 193.75,-139.62 193.75,-125.18 231.51,-113.44 278,-113.44 324.49,-113.44 362.25,-125.18 362.25,-139.62 362.25,-139.62 362.25,-375.31 362.25,-375.31"/>
<path fill="none" stroke="black" d="M362.25,-375.31C362.25,-360.86 324.49,-349.12 278,-349.12 231.51,-349.12 193.75,-360.86 193.75,-375.31"/>
<polygon fill="none" stroke="black" points="201.75,-331.72 201.75,-358.22 354.25,-358.22 354.25,-331.72 201.75,-331.72"/>
<text xml:space="preserve" text-anchor="start" x="225.12" y="-340.92" font-family="Times New Roman,serif" font-size="14.00"> </text>
<text xml:space="preserve" text-anchor="start" x="228.88" y="-340.92" font-family="Times New Roman,serif" font-weight="bold" font-size="14.00">ref (ICES tables)</text>
<text xml:space="preserve" text-anchor="start" x="327.12" y="-340.92" font-family="Times New Roman,serif" font-size="14.00"> </text>
<polygon fill="none" stroke="black" points="201.75,-156.72 201.75,-331.72 354.25,-331.72 354.25,-156.72 201.75,-156.72"/>
<text xml:space="preserve" text-anchor="start" x="206.75" y="-313.42" font-family="Times New Roman,serif" font-size="14.00">&quot;ref&quot;.&quot;Deprecated&quot; &#160;</text>
<text xml:space="preserve" text-anchor="start" x="206.75" y="-296.92" font-family="Times New Roman,serif" font-size="14.00">&quot;ref&quot;.&quot;EDMO&quot; </text>
<text xml:space="preserve" text-anchor="start" x="206.75" y="-280.42" font-family="Times New Roman,serif" font-size="14.00">&quot;ref&quot;.&quot;MSTAT&quot; </text>
<text xml:space="preserve" text-anchor="start" x="206.75" y="-263.92" font-family="Times New Roman,serif" font-size="14.00">&quot;ref&quot;.&quot;PRGOV&quot; </text>
<text xml:space="preserve" text-anchor="start" x="206.75" y="-247.42" font-family="Times New Roman,serif" font-size="14.00">&quot;ref&quot;.&quot;PURPM&quot; </text>
<text xml:space="preserve" text-anchor="start" x="206.75" y="-230.92" font-family="Times New Roman,serif" font-size="14.00">&quot;ref&quot;.&quot;StationDictionary&quot; </text>
<text xml:space="preserve" text-anchor="start" x="206.75" y="-214.42" font-family="Times New Roman,serif" font-size="14.00">&quot;ref&quot;.&quot;Station_DTYPE&quot; </text>
<text xml:space="preserve" text-anchor="start" x="206.75" y="-197.92" font-family="Times New Roman,serif" font-size="14.00">&quot;ref&quot;.&quot;WLTYP&quot; </text>
<text xml:space="preserve" text-anchor="start" x="206.75" y="-181.42" font-family="Times New Roman,serif" font-size="14.00">... </text>
<text xml:space="preserve" text-anchor="start" x="276.12" y="-164.92" font-family="Times New Roman,serif" font-size="14.00"> </text>
</g>
<!-- refbis -->
<g id="node3" class="node">
<title>refbis</title>
<path fill="gray" stroke="black" d="M583.5,-468.12C583.5,-493.96 538.01,-514.94 482,-514.94 425.99,-514.94 380.5,-493.96 380.5,-468.12 380.5,-468.12 380.5,-46.81 380.5,-46.81 380.5,-20.98 425.99,0 482,0 538.01,0 583.5,-20.98 583.5,-46.81 583.5,-46.81 583.5,-468.12 583.5,-468.12"/>
<path fill="none" stroke="black" d="M583.5,-468.12C583.5,-442.29 538.01,-421.31 482,-421.31 425.99,-421.31 380.5,-442.29 380.5,-468.12"/>
<polygon fill="none" stroke="black" points="388.5,-414.22 388.5,-440.72 575.5,-440.72 575.5,-414.22 388.5,-414.22"/>
<text xml:space="preserve" text-anchor="start" x="470" y="-423.42" font-family="Times New Roman,serif" font-size="14.00"> </text>
<text xml:space="preserve" text-anchor="start" x="473.75" y="-423.42" font-family="Times New Roman,serif" font-weight="bold" font-size="14.00">ref</text>
<text xml:space="preserve" text-anchor="start" x="490.25" y="-423.42" font-family="Times New Roman,serif" font-size="14.00"> </text>
<polygon fill="none" stroke="black" points="388.5,-74.22 388.5,-414.22 575.5,-414.22 575.5,-74.22 388.5,-74.22"/>
<text xml:space="preserve" text-anchor="start" x="393.5" y="-395.92" font-family="Times New Roman,serif" font-size="14.00">&quot;ref&quot;.riversegments </text>
<text xml:space="preserve" text-anchor="start" x="393.5" y="-379.42" font-family="Times New Roman,serif" font-size="14.00">&quot;ref&quot;.tr_age_age </text>
<text xml:space="preserve" text-anchor="start" x="393.5" y="-362.92" font-family="Times New Roman,serif" font-size="14.00">&quot;ref&quot;.tr_area_are </text>
<text xml:space="preserve" text-anchor="start" x="393.5" y="-346.42" font-family="Times New Roman,serif" font-size="14.00">&quot;ref&quot;.tr_category_cat </text>
<text xml:space="preserve" text-anchor="start" x="393.5" y="-329.92" font-family="Times New Roman,serif" font-size="14.00">&quot;ref&quot;.tr_country_cou </text>
<text xml:space="preserve" text-anchor="start" x="393.5" y="-313.42" font-family="Times New Roman,serif" font-size="14.00">&quot;ref&quot;.tr_dataaccess_dta </text>
<text xml:space="preserve" text-anchor="start" x="393.5" y="-296.92" font-family="Times New Roman,serif" font-size="14.00">&quot;ref&quot;.tr_databasis_dtb </text>
<text xml:space="preserve" text-anchor="start" x="393.5" y="-280.42" font-family="Times New Roman,serif" font-size="14.00">&quot;ref&quot;.tr_datasource_dts </text>
<text xml:space="preserve" text-anchor="start" x="393.5" y="-263.92" font-family="Times New Roman,serif" font-size="14.00">&quot;ref&quot;.tr_destination_des </text>
<text xml:space="preserve" text-anchor="start" x="393.5" y="-247.42" font-family="Times New Roman,serif" font-size="14.00">&quot;ref&quot;.tr_estimationmethod_esm </text>
<text xml:space="preserve" text-anchor="start" x="393.5" y="-230.92" font-family="Times New Roman,serif" font-size="14.00">&quot;ref&quot;.tr_fishingarea_fia </text>
<text xml:space="preserve" text-anchor="start" x="393.5" y="-214.42" font-family="Times New Roman,serif" font-size="14.00">&quot;ref&quot;.tr_fishway_fiw </text>
<text xml:space="preserve" text-anchor="start" x="393.5" y="-197.92" font-family="Times New Roman,serif" font-size="14.00" fill="pink">&quot;ref&quot;.tr_gear_gea </text>
<text xml:space="preserve" text-anchor="start" x="393.5" y="-181.42" font-family="Times New Roman,serif" font-size="14.00">&quot;ref&quot;.tr_habitat_hab </text>
<text xml:space="preserve" text-anchor="start" x="393.5" y="-164.92" font-family="Times New Roman,serif" font-size="14.00">&quot;ref&quot;.tr_habitatlevel_lev </text>
<text xml:space="preserve" text-anchor="start" x="393.5" y="-148.42" font-family="Times New Roman,serif" font-size="14.00">&quot;ref&quot;.tr_habitattype_hty </text>
<text xml:space="preserve" text-anchor="start" x="393.5" y="-131.92" font-family="Times New Roman,serif" font-size="14.00">&quot;ref&quot;.tr_icworkinggroup_wkg </text>
<text xml:space="preserve" text-anchor="start" x="393.5" y="-115.42" font-family="Times New Roman,serif" font-size="14.00">&quot;ref&quot;.tr_lifestage_lfs </text>
<text xml:space="preserve" text-anchor="start" x="393.5" y="-98.92" font-family="Times New Roman,serif" font-size="14.00">... </text>
<text xml:space="preserve" text-anchor="start" x="480.12" y="-82.42" font-family="Times New Roman,serif" font-size="14.00"> </text>
</g>
</g>
</svg>
