<?xml version="1.0" encoding="UTF-8" standalone="no"?>
<!DOCTYPE svg PUBLIC "-//W3C//DTD SVG 1.1//EN"
 "http://www.w3.org/Graphics/SVG/1.1/DTD/svg11.dtd">
<!-- Generated by graphviz version 14.0.5 (20251129.0259)
 -->
<!-- Title: schema Pages: 1 -->
<svg width="237pt" height="360pt"
 viewBox="0.00 0.00 237.00 360.00" xmlns="http://www.w3.org/2000/svg" xmlns:xlink="http://www.w3.org/1999/xlink">
<g id="graph0" class="graph" transform="scale(0.234566 0.234566) rotate(0) translate(4 1530.75)">
<title>schema</title>
<polygon fill="white" stroke="none" points="-4,4 -4,-1530.75 1006.12,-1530.75 1006.12,4 -4,4"/>
<!-- ref -->
<g id="node1" class="node">
<title>ref</title>
<path fill="gray" stroke="black" d="M635.75,-860.62C635.75,-908.11 590.26,-946.69 534.25,-946.69 478.24,-946.69 432.75,-908.11 432.75,-860.62 432.75,-860.62 432.75,-86.06 432.75,-86.06 432.75,-38.57 478.24,0 534.25,0 590.26,0 635.75,-38.57 635.75,-86.06 635.75,-86.06 635.75,-860.62 635.75,-860.62"/>
<path fill="none" stroke="black" d="M635.75,-860.62C635.75,-813.14 590.26,-774.56 534.25,-774.56 478.24,-774.56 432.75,-813.14 432.75,-860.62"/>
<polygon fill="none" stroke="black" points="440.75,-787.09 440.75,-813.59 627.75,-813.59 627.75,-787.09 440.75,-787.09"/>
<text xml:space="preserve" text-anchor="start" x="522.25" y="-796.29" font-family="Times New Roman,serif" font-size="14.00"> </text>
<text xml:space="preserve" text-anchor="start" x="526" y="-796.29" font-family="Times New Roman,serif" font-weight="bold" font-size="14.00">ref</text>
<text xml:space="preserve" text-anchor="start" x="542.5" y="-796.29" font-family="Times New Roman,serif" font-size="14.00"> </text>
<polygon fill="none" stroke="black" points="440.75,-133.09 440.75,-787.09 627.75,-787.09 627.75,-133.09 440.75,-133.09"/>
<text xml:space="preserve" text-anchor="start" x="445.75" y="-769.79" font-family="Times New Roman,serif" font-size="14.00">&quot;ref&quot;.&quot;Deprecated&quot; &#160;</text>
<text xml:space="preserve" text-anchor="start" x="445.75" y="-755.79" font-family="Times New Roman,serif" font-size="14.00">&quot;ref&quot;.&quot;EDMO&quot; </text>
<text xml:space="preserve" text-anchor="start" x="445.75" y="-741.79" font-family="Times New Roman,serif" font-size="14.00">&quot;ref&quot;.&quot;MSTAT&quot; </text>
<text xml:space="preserve" text-anchor="start" x="445.75" y="-727.79" font-family="Times New Roman,serif" font-size="14.00">&quot;ref&quot;.&quot;PRGOV&quot; </text>
<text xml:space="preserve" text-anchor="start" x="445.75" y="-713.79" font-family="Times New Roman,serif" font-size="14.00">&quot;ref&quot;.&quot;PURPM&quot; </text>
<text xml:space="preserve" text-anchor="start" x="445.75" y="-699.79" font-family="Times New Roman,serif" font-size="14.00">&quot;ref&quot;.&quot;StationDictionary&quot; </text>
<text xml:space="preserve" text-anchor="start" x="445.75" y="-685.79" font-family="Times New Roman,serif" font-size="14.00">&quot;ref&quot;.&quot;Station_DTYPE&quot; </text>
<text xml:space="preserve" text-anchor="start" x="445.75" y="-671.79" font-family="Times New Roman,serif" font-size="14.00">&quot;ref&quot;.&quot;WLTYP&quot; </text>
<text xml:space="preserve" text-anchor="start" x="445.75" y="-657.79" font-family="Times New Roman,serif" font-size="14.00">&quot;ref&quot;.riversegments </text>
<text xml:space="preserve" text-anchor="start" x="445.75" y="-643.79" font-family="Times New Roman,serif" font-size="14.00">&quot;ref&quot;.tr_age_age </text>
<text xml:space="preserve" text-anchor="start" x="445.75" y="-629.79" font-family="Times New Roman,serif" font-size="14.00">&quot;ref&quot;.tr_area_are </text>
<text xml:space="preserve" text-anchor="start" x="445.75" y="-615.79" font-family="Times New Roman,serif" font-size="14.00">&quot;ref&quot;.tr_category_cat </text>
<text xml:space="preserve" text-anchor="start" x="445.75" y="-601.79" font-family="Times New Roman,serif" font-size="14.00">&quot;ref&quot;.tr_country_cou </text>
<text xml:space="preserve" text-anchor="start" x="445.75" y="-587.79" font-family="Times New Roman,serif" font-size="14.00">&quot;ref&quot;.tr_dataaccess_dta </text>
<text xml:space="preserve" text-anchor="start" x="445.75" y="-573.79" font-family="Times New Roman,serif" font-size="14.00">&quot;ref&quot;.tr_databasis_dtb </text>
<text xml:space="preserve" text-anchor="start" x="445.75" y="-559.79" font-family="Times New Roman,serif" font-size="14.00">&quot;ref&quot;.tr_datasource_dts </text>
<text xml:space="preserve" text-anchor="start" x="445.75" y="-545.79" font-family="Times New Roman,serif" font-size="14.00">&quot;ref&quot;.tr_destination_des </text>
<text xml:space="preserve" text-anchor="start" x="445.75" y="-531.79" font-family="Times New Roman,serif" font-size="14.00">&quot;ref&quot;.tr_estimationmethod_esm </text>
<text xml:space="preserve" text-anchor="start" x="445.75" y="-517.79" font-family="Times New Roman,serif" font-size="14.00">&quot;ref&quot;.tr_fishingarea_fia </text>
<text xml:space="preserve" text-anchor="start" x="445.75" y="-503.79" font-family="Times New Roman,serif" font-size="14.00">&quot;ref&quot;.tr_fishway_fiw </text>
<text xml:space="preserve" text-anchor="start" x="445.75" y="-489.79" font-family="Times New Roman,serif" font-size="14.00" fill="pink">&quot;ref&quot;.tr_gear_gea </text>
<text xml:space="preserve" text-anchor="start" x="445.75" y="-475.79" font-family="Times New Roman,serif" font-size="14.00">&quot;ref&quot;.tr_habitat_hab </text>
<text xml:space="preserve" text-anchor="start" x="445.75" y="-461.79" font-family="Times New Roman,serif" font-size="14.00">&quot;ref&quot;.tr_habitatlevel_lev </text>
<text xml:space="preserve" text-anchor="start" x="445.75" y="-447.79" font-family="Times New Roman,serif" font-size="14.00">&quot;ref&quot;.tr_habitattype_hty </text>
<text xml:space="preserve" text-anchor="start" x="445.75" y="-433.79" font-family="Times New Roman,serif" font-size="14.00">&quot;ref&quot;.tr_icworkinggroup_wkg </text>
<text xml:space="preserve" text-anchor="start" x="445.75" y="-419.79" font-family="Times New Roman,serif" font-size="14.00">&quot;ref&quot;.tr_lifestage_lfs </text>
<text xml:space="preserve" text-anchor="start" x="445.75" y="-405.79" font-family="Times New Roman,serif" font-size="14.00">&quot;ref&quot;.tr_maturity_mat </text>
<text xml:space="preserve" text-anchor="start" x="445.75" y="-391.79" font-family="Times New Roman,serif" font-size="14.00">&quot;ref&quot;.tr_metric_mtr </text>
<text xml:space="preserve" text-anchor="start" x="445.75" y="-377.79" font-family="Times New Roman,serif" font-size="14.00">&quot;ref&quot;.tr_missvalueqal_mis </text>
<text xml:space="preserve" text-anchor="start" x="445.75" y="-363.79" font-family="Times New Roman,serif" font-size="14.00">&quot;ref&quot;.tr_monitoring_mon </text>
<text xml:space="preserve" text-anchor="start" x="445.75" y="-349.79" font-family="Times New Roman,serif" font-size="14.00">&quot;ref&quot;.tr_nimble_nim </text>
<text xml:space="preserve" text-anchor="start" x="445.75" y="-335.79" font-family="Times New Roman,serif" font-size="14.00" fill="pink">&quot;ref&quot;.tr_objecttype_oty </text>
<text xml:space="preserve" text-anchor="start" x="445.75" y="-321.79" font-family="Times New Roman,serif" font-size="14.00">&quot;ref&quot;.tr_outcome_oco </text>
<text xml:space="preserve" text-anchor="start" x="445.75" y="-307.79" font-family="Times New Roman,serif" font-size="14.00">&quot;ref&quot;.tr_quality_qal </text>
<text xml:space="preserve" text-anchor="start" x="445.75" y="-293.79" font-family="Times New Roman,serif" font-size="14.00">&quot;ref&quot;.tr_rivernames_riv </text>
<text xml:space="preserve" text-anchor="start" x="445.75" y="-279.79" font-family="Times New Roman,serif" font-size="14.00">&quot;ref&quot;.tr_sex_sex </text>
<text xml:space="preserve" text-anchor="start" x="445.75" y="-265.79" font-family="Times New Roman,serif" font-size="14.00">&quot;ref&quot;.tr_species_spe </text>
<text xml:space="preserve" text-anchor="start" x="445.75" y="-251.79" font-family="Times New Roman,serif" font-size="14.00">&quot;ref&quot;.tr_timeperiod_tip </text>
<text xml:space="preserve" text-anchor="start" x="445.75" y="-237.79" font-family="Times New Roman,serif" font-size="14.00" fill="lightgreen">&quot;ref&quot;.tr_trait_tra </text>
<text xml:space="preserve" text-anchor="start" x="445.75" y="-223.79" font-family="Times New Roman,serif" font-size="14.00" fill="lightgreen">&quot;ref&quot;.tr_traitmethod_trm </text>
<text xml:space="preserve" text-anchor="start" x="445.75" y="-209.79" font-family="Times New Roman,serif" font-size="14.00" fill="lightgreen">&quot;ref&quot;.tr_traitnumeric_trn </text>
<text xml:space="preserve" text-anchor="start" x="445.75" y="-195.79" font-family="Times New Roman,serif" font-size="14.00" fill="lightgreen">&quot;ref&quot;.tr_traitqualitative_trq </text>
<text xml:space="preserve" text-anchor="start" x="445.75" y="-181.79" font-family="Times New Roman,serif" font-size="14.00" fill="lightgreen">&quot;ref&quot;.tr_traitvaluequal_trv </text>
<text xml:space="preserve" text-anchor="start" x="445.75" y="-167.79" font-family="Times New Roman,serif" font-size="14.00" fill="lightgreen">&quot;ref&quot;.tr_units_uni </text>
<text xml:space="preserve" text-anchor="start" x="445.75" y="-153.79" font-family="Times New Roman,serif" font-size="14.00" fill="lightgreen">&quot;ref&quot;.tr_version_ver</text>
<text xml:space="preserve" text-anchor="start" x="555.25" y="-153.79" font-family="Times New Roman,serif" font-size="14.00">... </text>
<text xml:space="preserve" text-anchor="start" x="532.38" y="-139.79" font-family="Times New Roman,serif" font-size="14.00"> </text>
</g>
<!-- dat -->
<g id="node2" class="node">
<title>dat</title>
<path fill="gray" stroke="black" d="M641.75,-1223.94C641.75,-1237.25 611.05,-1248.06 573.25,-1248.06 535.45,-1248.06 504.75,-1237.25 504.75,-1223.94 504.75,-1223.94 504.75,-1006.81 504.75,-1006.81 504.75,-993.5 535.45,-982.69 573.25,-982.69 611.05,-982.69 641.75,-993.5 641.75,-1006.81 641.75,-1006.81 641.75,-1223.94 641.75,-1223.94"/>
<path fill="none" stroke="black" d="M641.75,-1223.94C641.75,-1210.63 611.05,-1199.81 573.25,-1199.81 535.45,-1199.81 504.75,-1210.63 504.75,-1223.94"/>
<polygon fill="none" stroke="black" points="512.75,-1181.38 512.75,-1207.88 633.75,-1207.88 633.75,-1181.38 512.75,-1181.38"/>
<text xml:space="preserve" text-anchor="start" x="560.12" y="-1190.58" font-family="Times New Roman,serif" font-size="14.00"> </text>
<text xml:space="preserve" text-anchor="start" x="563.88" y="-1190.58" font-family="Times New Roman,serif" font-weight="bold" font-size="14.00">dat</text>
<text xml:space="preserve" text-anchor="start" x="582.62" y="-1190.58" font-family="Times New Roman,serif" font-size="14.00"> </text>
<polygon fill="none" stroke="black" points="512.75,-1022.88 512.75,-1181.38 633.75,-1181.38 633.75,-1022.88 512.75,-1022.88"/>
<text xml:space="preserve" text-anchor="start" x="517.75" y="-1163.08" font-family="Times New Roman,serif" font-size="14.00" fill="lightblue">dat.t_stock_sto</text>
<text xml:space="preserve" text-anchor="start" x="517.75" y="-1146.58" font-family="Times New Roman,serif" font-size="14.00" fill="lightblue">dat.t_metadata_met</text>
<text xml:space="preserve" text-anchor="start" x="517.75" y="-1130.08" font-family="Times New Roman,serif" font-size="14.00">dat.t_series_ser </text>
<text xml:space="preserve" text-anchor="start" x="517.75" y="-1113.58" font-family="Times New Roman,serif" font-size="14.00">dat.t_serannual_san </text>
<text xml:space="preserve" text-anchor="start" x="517.75" y="-1097.08" font-family="Times New Roman,serif" font-size="14.00">dat.t_group_gr </text>
<text xml:space="preserve" text-anchor="start" x="517.75" y="-1080.58" font-family="Times New Roman,serif" font-size="14.00">dat.t_grouptrait_grt </text>
<text xml:space="preserve" text-anchor="start" x="517.75" y="-1064.08" font-family="Times New Roman,serif" font-size="14.00">dat.t_fish_fi </text>
<text xml:space="preserve" text-anchor="start" x="517.75" y="-1047.58" font-family="Times New Roman,serif" font-size="14.00">... </text>
<text xml:space="preserve" text-anchor="start" x="571.38" y="-1031.08" font-family="Times New Roman,serif" font-size="14.00"> </text>
</g>
<!-- refeel -->
<g id="node3" class="node">
<title>refeel</title>
<path fill="pink" stroke="black" d="M486.25,-1205.38C486.25,-1216.41 446.81,-1225.38 398.25,-1225.38 349.69,-1225.38 310.25,-1216.41 310.25,-1205.38 310.25,-1205.38 310.25,-1025.38 310.25,-1025.38 310.25,-1014.34 349.69,-1005.38 398.25,-1005.38 446.81,-1005.38 486.25,-1014.34 486.25,-1025.38 486.25,-1025.38 486.25,-1205.38 486.25,-1205.38"/>
<path fill="none" stroke="black" d="M486.25,-1205.38C486.25,-1194.34 446.81,-1185.38 398.25,-1185.38 349.69,-1185.38 310.25,-1194.34 310.25,-1205.38"/>
<polygon fill="none" stroke="black" points="318.25,-1164.88 318.25,-1191.38 478.25,-1191.38 478.25,-1164.88 318.25,-1164.88"/>
<text xml:space="preserve" text-anchor="start" x="378.38" y="-1174.08" font-family="Times New Roman,serif" font-size="14.00"> </text>
<text xml:space="preserve" text-anchor="start" x="382.12" y="-1174.08" font-family="Times New Roman,serif" font-weight="bold" font-size="14.00">refeel</text>
<text xml:space="preserve" text-anchor="start" x="414.38" y="-1174.08" font-family="Times New Roman,serif" font-size="14.00"> </text>
<polygon fill="none" stroke="black" points="318.25,-1039.38 318.25,-1164.88 478.25,-1164.88 478.25,-1039.38 318.25,-1039.38"/>
<text xml:space="preserve" text-anchor="start" x="323.25" y="-1146.58" font-family="Times New Roman,serif" font-size="14.00">refeel.tg_trait_tra</text>
<text xml:space="preserve" text-anchor="start" x="323.25" y="-1130.08" font-family="Times New Roman,serif" font-size="14.00">refeel.tr_area_are</text>
<text xml:space="preserve" text-anchor="start" x="323.25" y="-1113.58" font-family="Times New Roman,serif" font-size="14.00">refeel.tr_traitmethod_trm</text>
<text xml:space="preserve" text-anchor="start" x="323.25" y="-1097.08" font-family="Times New Roman,serif" font-size="14.00">refeel.tr_traitnumeric_trn</text>
<text xml:space="preserve" text-anchor="start" x="323.25" y="-1080.58" font-family="Times New Roman,serif" font-size="14.00">refeel.tr_traitqualitative_trq</text>
<text xml:space="preserve" text-anchor="start" x="323.25" y="-1064.08" font-family="Times New Roman,serif" font-size="14.00">refeel.tr_traitvaluequal_trv</text>
<text xml:space="preserve" text-anchor="start" x="323.25" y="-1047.58" font-family="Times New Roman,serif" font-size="14.00">refeel.tr_version_ver</text>
</g>
<!-- refeel&#45;&gt;ref -->
<g id="edge1" class="edge">
<title>refeel&#45;&gt;ref</title>
<path fill="none" stroke="black" stroke-dasharray="5,2" d="M421.47,-1005.08C426.55,-981.17 432.23,-954.45 438.27,-926.05"/>
<polygon fill="black" stroke="black" points="441.63,-927.07 440.28,-916.56 434.78,-925.62 441.63,-927.07"/>
</g>
<!-- dateel -->
<g id="node4" class="node">
<title>dateel</title>
<path fill="pink" stroke="black" d="M501.25,-1501.31C501.25,-1513.07 463.15,-1522.62 416.25,-1522.62 369.35,-1522.62 331.25,-1513.07 331.25,-1501.31 331.25,-1501.31 331.25,-1309.5 331.25,-1309.5 331.25,-1297.74 369.35,-1288.19 416.25,-1288.19 463.15,-1288.19 501.25,-1297.74 501.25,-1309.5 501.25,-1309.5 501.25,-1501.31 501.25,-1501.31"/>
<path fill="none" stroke="black" d="M501.25,-1501.31C501.25,-1489.55 463.15,-1480 416.25,-1480 369.35,-1480 331.25,-1489.55 331.25,-1501.31"/>
<polygon fill="none" stroke="black" points="339.25,-1460.16 339.25,-1486.66 493.25,-1486.66 493.25,-1460.16 339.25,-1460.16"/>
<text xml:space="preserve" text-anchor="start" x="395.25" y="-1469.36" font-family="Times New Roman,serif" font-size="14.00"> </text>
<text xml:space="preserve" text-anchor="start" x="399" y="-1469.36" font-family="Times New Roman,serif" font-weight="bold" font-size="14.00">dateel</text>
<text xml:space="preserve" text-anchor="start" x="433.5" y="-1469.36" font-family="Times New Roman,serif" font-size="14.00"> </text>
<polygon fill="none" stroke="black" points="339.25,-1324.16 339.25,-1460.16 493.25,-1460.16 493.25,-1324.16 339.25,-1324.16"/>
<text xml:space="preserve" text-anchor="start" x="344.25" y="-1442.86" font-family="Times New Roman,serif" font-size="14.00" fill="blue">dateel.t_metadata_met</text>
<text xml:space="preserve" text-anchor="start" x="468" y="-1442.86" font-family="Times New Roman,serif" font-size="14.00"> </text>
<text xml:space="preserve" text-anchor="start" x="344.25" y="-1428.86" font-family="Times New Roman,serif" font-size="14.00" fill="blue">dateel.t_stock_sto</text>
<text xml:space="preserve" text-anchor="start" x="441.75" y="-1428.86" font-family="Times New Roman,serif" font-size="14.00"> </text>
<text xml:space="preserve" text-anchor="start" x="344.25" y="-1414.86" font-family="Times New Roman,serif" font-size="14.00">dateel.t_series_ser </text>
<text xml:space="preserve" text-anchor="start" x="344.25" y="-1400.86" font-family="Times New Roman,serif" font-size="14.00">dateel.t_serannual_san </text>
<text xml:space="preserve" text-anchor="start" x="344.25" y="-1386.86" font-family="Times New Roman,serif" font-size="14.00">dateel.t_group_gr </text>
<text xml:space="preserve" text-anchor="start" x="344.25" y="-1372.86" font-family="Times New Roman,serif" font-size="14.00">dateel.t_grouptrait_grt </text>
<text xml:space="preserve" text-anchor="start" x="344.25" y="-1358.86" font-family="Times New Roman,serif" font-size="14.00">dateel.t_fish_fi </text>
<text xml:space="preserve" text-anchor="start" x="344.25" y="-1344.86" font-family="Times New Roman,serif" font-size="14.00">dateel.tj_seriesstation_ses </text>
<text xml:space="preserve" text-anchor="start" x="414.38" y="-1330.86" font-family="Times New Roman,serif" font-size="14.00"> </text>
</g>
<!-- dateel&#45;&gt;ref -->
<g id="edge13" class="edge">
<title>dateel&#45;&gt;ref</title>
<path fill="none" stroke="black" d="M333.56,-1297.03C316.75,-1274.16 303.47,-1254.83 301.25,-1248.06 264.47,-1136 276.1,-1097.92 301.25,-982.69 325.94,-869.55 378.21,-751.48 426.99,-657.64"/>
<polygon fill="black" stroke="black" points="430.07,-659.31 431.61,-648.82 423.87,-656.06 430.07,-659.31"/>
</g>
<!-- dateel&#45;&gt;dat -->
<g id="edge5" class="edge">
<title>dateel&#45;&gt;dat</title>
<path fill="none" stroke="black" stroke-dasharray="5,2" d="M477.85,-1291.4C485.6,-1277.18 493.58,-1262.54 501.46,-1248.07"/>
<polygon fill="black" stroke="black" points="504.47,-1249.88 506.18,-1239.42 498.32,-1246.52 504.47,-1249.88"/>
</g>
<!-- dateel&#45;&gt;refeel -->
<g id="edge9" class="edge">
<title>dateel&#45;&gt;refeel</title>
<path fill="none" stroke="black" d="M408.98,-1288.08C407.92,-1271.18 406.83,-1253.74 405.77,-1236.76"/>
<polygon fill="black" stroke="black" points="409.29,-1236.94 405.17,-1227.18 402.31,-1237.38 409.29,-1236.94"/>
</g>
<!-- refbast -->
<g id="node5" class="node">
<title>refbast</title>
<path fill="purple" stroke="black" d="M216.5,-1203.41C216.5,-1214.2 167.98,-1222.97 108.25,-1222.97 48.52,-1222.97 0,-1214.2 0,-1203.41 0,-1203.41 0,-1027.34 0,-1027.34 0,-1016.55 48.52,-1007.78 108.25,-1007.78 167.98,-1007.78 216.5,-1016.55 216.5,-1027.34 216.5,-1027.34 216.5,-1203.41 216.5,-1203.41"/>
<path fill="none" stroke="black" d="M216.5,-1203.41C216.5,-1192.61 167.98,-1183.84 108.25,-1183.84 48.52,-1183.84 0,-1192.61 0,-1203.41"/>
<polygon fill="none" stroke="black" points="8,-1163.12 8,-1189.62 208.5,-1189.62 208.5,-1163.12 8,-1163.12"/>
<text xml:space="preserve" text-anchor="start" x="84.25" y="-1172.33" font-family="Times New Roman,serif" font-size="14.00"> </text>
<text xml:space="preserve" text-anchor="start" x="88" y="-1172.33" font-family="Times New Roman,serif" font-weight="bold" font-size="14.00" fill="white">refbast</text>
<text xml:space="preserve" text-anchor="start" x="128.5" y="-1172.33" font-family="Times New Roman,serif" font-size="14.00"> </text>
<polygon fill="none" stroke="black" points="8,-1041.12 8,-1163.12 208.5,-1163.12 208.5,-1041.12 8,-1041.12"/>
<text xml:space="preserve" text-anchor="start" x="13" y="-1145.83" font-family="Times New Roman,serif" font-size="14.00" fill="white">refbast.tr_area_are </text>
<text xml:space="preserve" text-anchor="start" x="13" y="-1131.83" font-family="Times New Roman,serif" font-size="14.00" fill="white"> refbast.tr_estimationmethod_esm </text>
<text xml:space="preserve" text-anchor="start" x="13" y="-1117.83" font-family="Times New Roman,serif" font-size="14.00" fill="white"> refbast.tr_rivernames_riv </text>
<text xml:space="preserve" text-anchor="start" x="13" y="-1103.83" font-family="Times New Roman,serif" font-size="14.00" fill="white"> refbast.tr_version_ver </text>
<text xml:space="preserve" text-anchor="start" x="13" y="-1089.83" font-family="Times New Roman,serif" font-size="14.00" fill="white"> </text>
<text xml:space="preserve" text-anchor="start" x="16.75" y="-1089.83" font-family="Times New Roman,serif" font-size="14.00" fill="pink">refbast.tr_traitmethod_trm</text>
<text xml:space="preserve" text-anchor="start" x="13" y="-1075.83" font-family="Times New Roman,serif" font-size="14.00" fill="pink">refbast.tr_traitnumeric_trn</text>
<text xml:space="preserve" text-anchor="start" x="13" y="-1061.83" font-family="Times New Roman,serif" font-size="14.00" fill="pink">refbast.tr_traitqualitative_trq</text>
<text xml:space="preserve" text-anchor="start" x="13" y="-1047.83" font-family="Times New Roman,serif" font-size="14.00" fill="pink">refbast.tr_traitvaluequal_trv</text>
</g>
<!-- refbast&#45;&gt;ref -->
<g id="edge2" class="edge">
<title>refbast&#45;&gt;ref</title>
<path fill="none" stroke="black" stroke-dasharray="5,2" d="M178.12,-1009.4C245.4,-908.32 348.14,-753.96 426.01,-636.97"/>
<polygon fill="black" stroke="black" points="428.81,-639.07 431.44,-628.81 422.99,-635.19 428.81,-639.07"/>
</g>
<!-- datbast -->
<g id="node6" class="node">
<title>datbast</title>
<path fill="purple" stroke="black" d="M313.5,-1504.69C313.5,-1516.86 274.39,-1526.75 226.25,-1526.75 178.11,-1526.75 139,-1516.86 139,-1504.69 139,-1504.69 139,-1306.12 139,-1306.12 139,-1293.95 178.11,-1284.06 226.25,-1284.06 274.39,-1284.06 313.5,-1293.95 313.5,-1306.12 313.5,-1306.12 313.5,-1504.69 313.5,-1504.69"/>
<path fill="none" stroke="black" d="M313.5,-1504.69C313.5,-1492.51 274.39,-1482.62 226.25,-1482.62 178.11,-1482.62 139,-1492.51 139,-1504.69"/>
<polygon fill="none" stroke="black" points="147,-1463.16 147,-1489.66 305.5,-1489.66 305.5,-1463.16 147,-1463.16"/>
<text xml:space="preserve" text-anchor="start" x="201.12" y="-1472.36" font-family="Times New Roman,serif" font-size="14.00"> </text>
<text xml:space="preserve" text-anchor="start" x="204.88" y="-1472.36" font-family="Times New Roman,serif" font-weight="bold" font-size="14.00" fill="white">datbast</text>
<text xml:space="preserve" text-anchor="start" x="247.62" y="-1472.36" font-family="Times New Roman,serif" font-size="14.00"> </text>
<polygon fill="none" stroke="black" points="147,-1321.16 147,-1463.16 305.5,-1463.16 305.5,-1321.16 147,-1321.16"/>
<text xml:space="preserve" text-anchor="start" x="152" y="-1444.86" font-family="Times New Roman,serif" font-size="14.00" fill="lightblue"> &#160;&#160;&#160;datbast.t_stock_sto </text>
<text xml:space="preserve" text-anchor="start" x="152" y="-1428.36" font-family="Times New Roman,serif" font-size="14.00" fill="lightblue"> &#160;&#160;&#160;datbast.t_metadata_met </text>
<text xml:space="preserve" text-anchor="start" x="152" y="-1411.86" font-family="Times New Roman,serif" font-size="14.00" fill="white"> &#160;&#160;&#160;datbast.t_series_ser </text>
<text xml:space="preserve" text-anchor="start" x="152" y="-1395.36" font-family="Times New Roman,serif" font-size="14.00" fill="white"> &#160;&#160;&#160;datbast.t_serannual_san </text>
<text xml:space="preserve" text-anchor="start" x="152" y="-1378.86" font-family="Times New Roman,serif" font-size="14.00" fill="white"> &#160;&#160;&#160;datbast.t_group_gr </text>
<text xml:space="preserve" text-anchor="start" x="152" y="-1362.36" font-family="Times New Roman,serif" font-size="14.00" fill="white"> &#160;&#160;&#160;datbast.t_grouptrait_grt </text>
<text xml:space="preserve" text-anchor="start" x="152" y="-1345.86" font-family="Times New Roman,serif" font-size="14.00" fill="white"> &#160;&#160;&#160;datbast.t_fish_fi </text>
<text xml:space="preserve" text-anchor="start" x="222.5" y="-1329.36" font-family="Times New Roman,serif" font-size="14.00"> &#160;</text>
</g>
<!-- datbast&#45;&gt;ref -->
<g id="edge16" class="edge">
<title>datbast&#45;&gt;ref</title>
<path fill="none" stroke="black" d="M228.53,-1283.95C232.89,-1198.32 244.45,-1081.45 274.25,-982.69 309.83,-864.79 372.1,-741.6 426.79,-646.03"/>
<polygon fill="black" stroke="black" points="429.69,-648 431.64,-637.59 423.62,-644.51 429.69,-648"/>
</g>
<!-- datbast&#45;&gt;dat -->
<g id="edge7" class="edge">
<title>datbast&#45;&gt;dat</title>
<path fill="none" stroke="black" stroke-dasharray="5,2" d="M309.94,-1292.54C313.93,-1289.5 318.04,-1286.65 322.25,-1284.06 389.15,-1242.93 431.36,-1293.73 495.25,-1248.06 496.28,-1247.33 497.29,-1246.58 498.3,-1245.81"/>
<polygon fill="black" stroke="black" points="500.49,-1248.54 505.88,-1239.42 495.98,-1243.19 500.49,-1248.54"/>
</g>
<!-- datbast&#45;&gt;refbast -->
<g id="edge12" class="edge">
<title>datbast&#45;&gt;refbast</title>
<path fill="none" stroke="black" d="M176.89,-1283.92C170.04,-1267.2 163.01,-1250.04 156.19,-1233.38"/>
<polygon fill="black" stroke="black" points="159.57,-1232.41 152.54,-1224.48 153.09,-1235.06 159.57,-1232.41"/>
</g>
<!-- refnas -->
<g id="node7" class="node">
<title>refnas</title>
<path fill="limegreen" stroke="black" d="M862.25,-1177.53C862.25,-1185.15 825.5,-1191.34 780.25,-1191.34 735,-1191.34 698.25,-1185.15 698.25,-1177.53 698.25,-1177.53 698.25,-1053.22 698.25,-1053.22 698.25,-1045.6 735,-1039.41 780.25,-1039.41 825.5,-1039.41 862.25,-1045.6 862.25,-1053.22 862.25,-1053.22 862.25,-1177.53 862.25,-1177.53"/>
<path fill="none" stroke="black" d="M862.25,-1177.53C862.25,-1169.91 825.5,-1163.72 780.25,-1163.72 735,-1163.72 698.25,-1169.91 698.25,-1177.53"/>
<polygon fill="none" stroke="black" points="706.25,-1140.12 706.25,-1166.62 854.25,-1166.62 854.25,-1140.12 706.25,-1140.12"/>
<text xml:space="preserve" text-anchor="start" x="758.5" y="-1149.33" font-family="Times New Roman,serif" font-size="14.00"> </text>
<text xml:space="preserve" text-anchor="start" x="762.25" y="-1149.33" font-family="Times New Roman,serif" font-weight="bold" font-size="14.00">refnas</text>
<text xml:space="preserve" text-anchor="start" x="798.25" y="-1149.33" font-family="Times New Roman,serif" font-size="14.00"> </text>
<polygon fill="none" stroke="black" points="706.25,-1064.12 706.25,-1140.12 854.25,-1140.12 854.25,-1064.12 706.25,-1064.12"/>
<text xml:space="preserve" text-anchor="start" x="711.25" y="-1121.83" font-family="Times New Roman,serif" font-size="14.00" fill="blue">refnas.tg_additional_add </text>
<text xml:space="preserve" text-anchor="start" x="711.25" y="-1105.33" font-family="Times New Roman,serif" font-size="14.00">refnas.tr_area_are </text>
<text xml:space="preserve" text-anchor="start" x="711.25" y="-1088.83" font-family="Times New Roman,serif" font-size="14.00">refnas.tr_rivernames_riv </text>
<text xml:space="preserve" text-anchor="start" x="711.25" y="-1072.33" font-family="Times New Roman,serif" font-size="14.00">refnas.tr_version_ver </text>
</g>
<!-- refnas&#45;&gt;ref -->
<g id="edge3" class="edge">
<title>refnas&#45;&gt;ref</title>
<path fill="none" stroke="black" stroke-dasharray="5,2" d="M751.31,-1039.07C723.81,-967.52 680.74,-855.48 640.2,-749.99"/>
<polygon fill="black" stroke="black" points="643.55,-748.97 636.7,-740.89 637.02,-751.48 643.55,-748.97"/>
</g>
<!-- datnas -->
<g id="node8" class="node">
<title>datnas</title>
<path fill="limegreen" stroke="black" d="M748.12,-1458.28C748.12,-1464.76 713.22,-1470.03 670.25,-1470.03 627.28,-1470.03 592.38,-1464.76 592.38,-1458.28 592.38,-1458.28 592.38,-1352.53 592.38,-1352.53 592.38,-1346.05 627.28,-1340.78 670.25,-1340.78 713.22,-1340.78 748.12,-1346.05 748.12,-1352.53 748.12,-1352.53 748.12,-1458.28 748.12,-1458.28"/>
<path fill="none" stroke="black" d="M748.12,-1458.28C748.12,-1451.8 713.22,-1446.53 670.25,-1446.53 627.28,-1446.53 592.38,-1451.8 592.38,-1458.28"/>
<polygon fill="none" stroke="black" points="600.38,-1421.91 600.38,-1448.41 740.12,-1448.41 740.12,-1421.91 600.38,-1421.91"/>
<text xml:space="preserve" text-anchor="start" x="647.38" y="-1431.11" font-family="Times New Roman,serif" font-size="14.00"> </text>
<text xml:space="preserve" text-anchor="start" x="651.12" y="-1431.11" font-family="Times New Roman,serif" font-weight="bold" font-size="14.00">datnas</text>
<text xml:space="preserve" text-anchor="start" x="689.38" y="-1431.11" font-family="Times New Roman,serif" font-size="14.00"> </text>
<polygon fill="none" stroke="black" points="600.38,-1362.41 600.38,-1421.91 740.12,-1421.91 740.12,-1362.41 600.38,-1362.41"/>
<text xml:space="preserve" text-anchor="start" x="605.38" y="-1403.61" font-family="Times New Roman,serif" font-size="14.00" fill="blue">datnas.t_stock_sto </text>
<text xml:space="preserve" text-anchor="start" x="605.38" y="-1387.11" font-family="Times New Roman,serif" font-size="14.00" fill="blue">datnas.t_metadata_met </text>
<text xml:space="preserve" text-anchor="start" x="605.38" y="-1370.61" font-family="Times New Roman,serif" font-size="14.00" fill="red">datnas.t_archive_ar </text>
</g>
<!-- datnas&#45;&gt;ref -->
<g id="edge14" class="edge">
<title>datnas&#45;&gt;ref</title>
<path fill="none" stroke="black" d="M670.96,-1340.5C671.06,-1257.6 668.44,-1108.68 651.25,-982.69 647.57,-955.75 643.15,-928.15 638.21,-900.4"/>
<polygon fill="black" stroke="black" points="641.7,-900.05 636.48,-890.83 634.82,-901.29 641.7,-900.05"/>
</g>
<!-- datnas&#45;&gt;dat -->
<g id="edge6" class="edge">
<title>datnas&#45;&gt;dat</title>
<path fill="none" stroke="black" stroke-dasharray="5,2" d="M648.72,-1340.48C640.37,-1315.68 630.46,-1286.24 620.6,-1256.99"/>
<polygon fill="black" stroke="black" points="623.97,-1256.02 617.46,-1247.66 617.34,-1258.25 623.97,-1256.02"/>
</g>
<!-- datnas&#45;&gt;refnas -->
<g id="edge10" class="edge">
<title>datnas&#45;&gt;refnas</title>
<path fill="none" stroke="black" d="M694.66,-1340.48C710.22,-1299.75 730.57,-1246.47 747.52,-1202.09"/>
<polygon fill="black" stroke="black" points="750.68,-1203.6 750.98,-1193.01 744.15,-1201.1 750.68,-1203.6"/>
</g>
<!-- reftrutta -->
<g id="node9" class="node">
<title>reftrutta</title>
<path fill="#ffa54f" stroke="black" d="M1002.12,-1140.41C1002.12,-1143.48 983.36,-1145.97 960.25,-1145.97 937.14,-1145.97 918.38,-1143.48 918.38,-1140.41 918.38,-1140.41 918.38,-1090.34 918.38,-1090.34 918.38,-1087.27 937.14,-1084.78 960.25,-1084.78 983.36,-1084.78 1002.12,-1087.27 1002.12,-1090.34 1002.12,-1090.34 1002.12,-1140.41 1002.12,-1140.41"/>
<path fill="none" stroke="black" d="M1002.12,-1140.41C1002.12,-1137.34 983.36,-1134.84 960.25,-1134.84 937.14,-1134.84 918.38,-1137.34 918.38,-1140.41"/>
<polygon fill="none" stroke="black" points="926.38,-1107.12 926.38,-1133.62 994.12,-1133.62 994.12,-1107.12 926.38,-1107.12"/>
<text xml:space="preserve" text-anchor="start" x="931.38" y="-1116.33" font-family="Times New Roman,serif" font-size="14.00"> </text>
<text xml:space="preserve" text-anchor="start" x="935.12" y="-1116.33" font-family="Times New Roman,serif" font-weight="bold" font-size="14.00">reftrutta</text>
<text xml:space="preserve" text-anchor="start" x="985.38" y="-1116.33" font-family="Times New Roman,serif" font-size="14.00"> </text>
<polygon fill="none" stroke="black" points="926.38,-1097.12 926.38,-1107.12 994.12,-1107.12 994.12,-1097.12 926.38,-1097.12"/>
</g>
<!-- reftrutta&#45;&gt;ref -->
<g id="edge4" class="edge">
<title>reftrutta&#45;&gt;ref</title>
<path fill="none" stroke="black" stroke-dasharray="5,2" d="M949.75,-1084.43C939.65,-1057.13 923.18,-1016.08 904.25,-982.69 827.71,-847.64 722.03,-705.77 643.21,-606.32"/>
<polygon fill="black" stroke="black" points="646.05,-604.27 637.08,-598.62 640.57,-608.63 646.05,-604.27"/>
</g>
<!-- dattrutta -->
<g id="node10" class="node">
<title>dattrutta</title>
<path fill="#ffa54f" stroke="black" d="M933.25,-1430.44C933.25,-1433.51 913.98,-1436 890.25,-1436 866.52,-1436 847.25,-1433.51 847.25,-1430.44 847.25,-1430.44 847.25,-1380.38 847.25,-1380.38 847.25,-1377.31 866.52,-1374.81 890.25,-1374.81 913.98,-1374.81 933.25,-1377.31 933.25,-1380.38 933.25,-1380.38 933.25,-1430.44 933.25,-1430.44"/>
<path fill="none" stroke="black" d="M933.25,-1430.44C933.25,-1427.37 913.98,-1424.88 890.25,-1424.88 866.52,-1424.88 847.25,-1427.37 847.25,-1430.44"/>
<polygon fill="none" stroke="black" points="855.25,-1397.16 855.25,-1423.66 925.25,-1423.66 925.25,-1397.16 855.25,-1397.16"/>
<text xml:space="preserve" text-anchor="start" x="860.25" y="-1406.36" font-family="Times New Roman,serif" font-size="14.00"> </text>
<text xml:space="preserve" text-anchor="start" x="864" y="-1406.36" font-family="Times New Roman,serif" font-weight="bold" font-size="14.00">dattrutta</text>
<text xml:space="preserve" text-anchor="start" x="916.5" y="-1406.36" font-family="Times New Roman,serif" font-size="14.00"> </text>
<polygon fill="none" stroke="black" points="855.25,-1387.16 855.25,-1397.16 925.25,-1397.16 925.25,-1387.16 855.25,-1387.16"/>
</g>
<!-- dattrutta&#45;&gt;ref -->
<g id="edge15" class="edge">
<title>dattrutta&#45;&gt;ref</title>
<path fill="none" stroke="black" d="M894.23,-1374.56C902.48,-1304.19 917.09,-1123.26 871.25,-982.69 823.77,-837.09 722.37,-693.74 643.13,-596.58"/>
<polygon fill="black" stroke="black" points="646.03,-594.6 636.98,-589.08 640.62,-599.04 646.03,-594.6"/>
</g>
<!-- dattrutta&#45;&gt;dat -->
<g id="edge8" class="edge">
<title>dattrutta&#45;&gt;dat</title>
<path fill="none" stroke="black" stroke-dasharray="5,2" d="M861.93,-1374.92C836.15,-1349.05 796.27,-1311.4 757.25,-1284.06 729.24,-1264.44 716.1,-1269.24 689.25,-1248.06 675.58,-1237.28 662.23,-1224.75 649.75,-1211.79"/>
<polygon fill="black" stroke="black" points="652.54,-1209.65 643.13,-1204.78 647.45,-1214.46 652.54,-1209.65"/>
</g>
<!-- dattrutta&#45;&gt;reftrutta -->
<g id="edge11" class="edge">
<title>dattrutta&#45;&gt;reftrutta</title>
<path fill="none" stroke="black" d="M897.54,-1374.4C910.15,-1322.53 936.03,-1216.04 950.28,-1157.38"/>
<polygon fill="black" stroke="black" points="953.66,-1158.33 952.62,-1147.79 946.85,-1156.68 953.66,-1158.33"/>
</g>
</g>
</svg>
