<?xml version="1.0" encoding="UTF-8" standalone="no"?>
<!DOCTYPE svg PUBLIC "-//W3C//DTD SVG 1.1//EN"
 "http://www.w3.org/Graphics/SVG/1.1/DTD/svg11.dtd">
<!-- Generated by graphviz version 13.0.1 (20250615.1724)
 -->
<!-- Pages: 1 -->
<svg width="588pt" height="265pt"
 viewBox="0.00 0.00 588.00 265.00" xmlns="http://www.w3.org/2000/svg" xmlns:xlink="http://www.w3.org/1999/xlink">
<g id="graph0" class="graph" transform="scale(1 1) rotate(0) translate(4 261)">
<polygon fill="white" stroke="none" points="-4,4 -4,-261 584.07,-261 584.07,4 -4,4"/>
<g id="clust1" class="cluster">
<title>clusterZ</title>
<polygon fill="none" stroke="lightgrey" points="0,-8 0,-249 572.07,-249 572.07,-8 0,-8"/>
<text xml:space="preserve" text-anchor="middle" x="286.04" y="-231.7" font-family="Times New Roman,serif" font-size="14.00" fill="lightgrey">Stock</text>
</g>
<g id="clust2" class="cluster">
<title>clusterA</title>
<polygon fill="none" stroke="lightgrey" points="8,-16 8,-216 264.11,-216 264.11,-16 8,-16"/>
<text xml:space="preserve" text-anchor="middle" x="136.06" y="-198.7" font-family="Times New Roman,serif" font-size="14.00" fill="lightgrey">Inland Stock</text>
</g>
<g id="clust3" class="cluster">
<title>clusterB</title>
<polygon fill="none" stroke="#00cd00" points="16,-24 16,-183 139,-183 139,-24 16,-24"/>
<text xml:space="preserve" text-anchor="middle" x="77.5" y="-165.7" font-family="Times New Roman,serif" font-size="14.00" fill="#00cd00">Assessment_unit</text>
</g>
<g id="clust4" class="cluster">
<title>clusterC</title>
<polygon fill="none" stroke="lightgrey" points="24,-32 24,-150 131,-150 131,-32 24,-32"/>
<text xml:space="preserve" text-anchor="middle" x="77.5" y="-132.7" font-family="Times New Roman,serif" font-size="14.00" fill="lightgrey">River</text>
</g>
<g id="clust5" class="cluster">
<title>clusterD</title>
<polygon fill="none" stroke="lightgrey" points="32,-40 32,-117 123,-117 123,-40 32,-40"/>
<text xml:space="preserve" text-anchor="middle" x="77.5" y="-99.7" font-family="Times New Roman,serif" font-size="14.00" fill="lightgrey">River_section</text>
</g>
<g id="clust6" class="cluster">
<title>clusterE</title>
<polygon fill="none" stroke="lightgrey" stroke-dasharray="5,2" points="163,-40 163,-117 256.11,-117 256.11,-40 163,-40"/>
<text xml:space="preserve" text-anchor="middle" x="209.56" y="-99.7" font-family="Times New Roman,serif" font-size="14.00" fill="lightgrey">Country</text>
</g>
<g id="clust7" class="cluster">
<title>clusterF</title>
<polygon fill="none" stroke="lightgrey" points="280.11,-16 280.11,-216 564.07,-216 564.07,-16 280.11,-16"/>
<text xml:space="preserve" text-anchor="middle" x="422.09" y="-198.7" font-family="Times New Roman,serif" font-size="14.00" fill="lightgrey">Marine Stock</text>
</g>
<g id="clust8" class="cluster">
<title>clusterG</title>
<polygon fill="none" stroke="lightgrey" points="288.11,-24 288.11,-183 556.07,-183 556.07,-24 288.11,-24"/>
<text xml:space="preserve" text-anchor="middle" x="422.09" y="-165.7" font-family="Times New Roman,serif" font-size="14.00" fill="lightgrey">Subarea</text>
</g>
<g id="clust9" class="cluster">
<title>clusterH</title>
<polygon fill="none" stroke="lightgrey" points="296.11,-32 296.11,-150 548.07,-150 548.07,-32 296.11,-32"/>
<text xml:space="preserve" text-anchor="middle" x="422.09" y="-132.7" font-family="Times New Roman,serif" font-size="14.00" fill="lightgrey">Division</text>
</g>
<g id="clust10" class="cluster">
<title>clusterI</title>
<polygon fill="none" stroke="#4876ff" points="304.11,-40 304.11,-117 412.36,-117 412.36,-40 304.11,-40"/>
<text xml:space="preserve" text-anchor="middle" x="358.24" y="-99.7" font-family="Times New Roman,serif" font-size="14.00" fill="#4876ff">Assessment_unit</text>
</g>
<g id="clust11" class="cluster">
<title>clusterJ</title>
<polygon fill="none" stroke="lightgrey" points="464.36,-40 464.36,-117 540.07,-117 540.07,-40 464.36,-40"/>
<text xml:space="preserve" text-anchor="middle" x="502.22" y="-99.7" font-family="Times New Roman,serif" font-size="14.00" fill="lightgrey">Fisheries</text>
</g>
<!-- section -->
<!-- Fishing -->
<!-- section&#45;&gt;Fishing -->
<!-- here -->
<!-- Fishing&#45;&gt;here -->
<!-- other -->
<!-- here&#45;&gt;other -->
</g>
</svg>
