<?xml version="1.0" encoding="UTF-8" standalone="no"?>
<!DOCTYPE svg PUBLIC "-//W3C//DTD SVG 1.1//EN"
 "http://www.w3.org/Graphics/SVG/1.1/DTD/svg11.dtd">
<!-- Generated by graphviz version 13.0.1 (20250615.1724)
 -->
<!-- Pages: 1 -->
<svg width="428pt" height="432pt"
 viewBox="0.00 0.00 428.00 432.00" xmlns="http://www.w3.org/2000/svg" xmlns:xlink="http://www.w3.org/1999/xlink">
<g id="graph0" class="graph" transform="scale(1 1) rotate(0) translate(4 428)">
<polygon fill="white" stroke="none" points="-4,4 -4,-428 424.25,-428 424.25,4 -4,4"/>
<g id="clust1" class="cluster">
<title>clusterZ</title>
<polygon fill="none" stroke="red" points="6,-8 6,-416 418,-416 418,-8 6,-8"/>
<text xml:space="preserve" text-anchor="middle" x="212" y="-398.7" font-family="Times New Roman,serif" font-size="14.00" fill="red">Stock</text>
</g>
<g id="clust2" class="cluster">
<title>clusterA</title>
<polygon fill="none" stroke="green" points="14,-16 14,-383 265.5,-383 265.5,-16 14,-16"/>
<text xml:space="preserve" text-anchor="middle" x="139.75" y="-365.7" font-family="Times New Roman,serif" font-size="14.00" fill="green">Inland Stock</text>
</g>
<g id="clust3" class="cluster">
<title>clusterB</title>
<polygon fill="none" stroke="#008b00" points="22,-24 22,-350 145,-350 145,-24 22,-24"/>
<text xml:space="preserve" text-anchor="middle" x="83.5" y="-332.7" font-family="Times New Roman,serif" font-size="14.00" fill="#008b00">Assessment_unit</text>
</g>
<g id="clust4" class="cluster">
<title>clusterX</title>
<polygon fill="none" stroke="#00cd00" points="32,-32 32,-191 134,-191 134,-32 32,-32"/>
<text xml:space="preserve" text-anchor="middle" x="83" y="-173.7" font-family="Times New Roman,serif" font-size="14.00" fill="#00cd00">Regional</text>
</g>
<g id="clust5" class="cluster">
<title>clusterY</title>
<polygon fill="none" stroke="#00ee00" points="40,-40 40,-158 126,-158 126,-40 40,-40"/>
<text xml:space="preserve" text-anchor="middle" x="83" y="-140.7" font-family="Times New Roman,serif" font-size="14.00" fill="#00ee00">Complex</text>
</g>
<g id="clust6" class="cluster">
<title>clusterV</title>
<polygon fill="none" stroke="#00ff00" points="48,-48 48,-125 118,-125 118,-48 48,-48"/>
<text xml:space="preserve" text-anchor="middle" x="83" y="-107.7" font-family="Times New Roman,serif" font-size="14.00" fill="#00ff00">Lagoons</text>
</g>
<g id="clust7" class="cluster">
<title>clusterC</title>
<polygon fill="none" stroke="#00cd00" points="30,-199 30,-317 137,-317 137,-199 30,-199"/>
<text xml:space="preserve" text-anchor="middle" x="83.5" y="-299.7" font-family="Times New Roman,serif" font-size="14.00" fill="#00cd00">River</text>
</g>
<g id="clust8" class="cluster">
<title>clusterD</title>
<polygon fill="none" stroke="#00ee00" points="38,-207 38,-284 129,-284 129,-207 38,-207"/>
<text xml:space="preserve" text-anchor="middle" x="83.5" y="-266.7" font-family="Times New Roman,serif" font-size="14.00" fill="#00ee00">River_section</text>
</g>
<g id="clust9" class="cluster">
<title>clusterE</title>
<polygon fill="none" stroke="firebrick" stroke-dasharray="5,2" points="169,-189 169,-327 257.5,-327 257.5,-189 169,-189"/>
<text xml:space="preserve" text-anchor="middle" x="213.25" y="-309.7" font-family="Times New Roman,serif" font-size="14.00" fill="firebrick">Country</text>
</g>
<g id="clust10" class="cluster">
<title>clusterW</title>
<polygon fill="none" stroke="#cd2626" points="177,-197 177,-294 249.5,-294 249.5,-197 177,-197"/>
<text xml:space="preserve" text-anchor="middle" x="213.25" y="-276.7" font-family="Times New Roman,serif" font-size="14.00" fill="#cd2626">EMU</text>
</g>
<g id="clust11" class="cluster">
<title>clusterF</title>
<polygon fill="none" stroke="#27408b" points="281.5,-183 281.5,-383 410,-383 410,-183 281.5,-183"/>
<text xml:space="preserve" text-anchor="middle" x="345.75" y="-365.7" font-family="Times New Roman,serif" font-size="14.00" fill="#27408b">Marine Stock</text>
</g>
<g id="clust12" class="cluster">
<title>clusterG</title>
<polygon fill="none" stroke="#3a5fcd" points="289.5,-191 289.5,-350 402,-350 402,-191 289.5,-191"/>
<text xml:space="preserve" text-anchor="middle" x="345.75" y="-332.7" font-family="Times New Roman,serif" font-size="14.00" fill="#3a5fcd">Regional</text>
</g>
<g id="clust13" class="cluster">
<title>clusterG</title>
<polygon fill="none" stroke="#436eee" points="297.5,-199 297.5,-317 394,-317 394,-199 297.5,-199"/>
<text xml:space="preserve" text-anchor="middle" x="345.75" y="-299.7" font-family="Times New Roman,serif" font-size="14.00" fill="#436eee">Division</text>
</g>
<g id="clust14" class="cluster">
<title>clusterH</title>
<polygon fill="none" stroke="#4876ff" points="305.5,-207 305.5,-284 386,-284 386,-207 305.5,-207"/>
<text xml:space="preserve" text-anchor="middle" x="345.75" y="-266.7" font-family="Times New Roman,serif" font-size="14.00" fill="#4876ff">Subdivision</text>
</g>
<!-- inland -->
<!-- section -->
<!-- Fishing -->
<!-- section&#45;&gt;Fishing -->
<!-- here -->
<!-- Fishing&#45;&gt;here -->
</g>
</svg>
